<svg xmlns="http://www.w3.org/2000/svg" xmlns:xlink="http://www.w3.org/1999/xlink" version="1.1" data-diagram-type="SEQUENCE" style="width:882px;height:517px;background:#FFFFFF;" width="882px" height="517px" viewBox="0 0 882 517" zoomAndPan="magnify" preserveAspectRatio="none" contentStyleType="text/css"><?plantuml 1.2026.8?><defs/><g font-family="sans-serif" lengthAdjust="spacing"><rect x="10" y="15" width="861.264" height="486.783" fill="#FFF" style="stroke:#181818;stroke-width:1.5;"/><path d="M138.282,15 L138.282,24.099 L128.282,34.099 L10,34.099" style="stroke:#181818;stroke-width:1.5;" fill="none"/><text x="13" y="29.132" fill="#000" font-size="14" textLength="118.282" font-family="Arial">sd Cadastrar conta</text><g><title>Visitante</title><rect x="42.513" y="120.897" width="8" height="363.787" fill="#000" fill-opacity="0"/><line x1="46.013" y1="120.897" x2="46.013" y2="484.685" style="stroke:#000;stroke-width:0.5;stroke-dasharray:5,5;"/></g><g><title>.TelaCadastro</title><rect x="276.676" y="120.897" width="8" height="363.787" fill="#000" fill-opacity="0"/><line x1="280.176" y1="120.897" x2="280.176" y2="484.685" style="stroke:#000;stroke-width:0.5;stroke-dasharray:5,5;"/></g><g><title></title><rect x="275.176" y="147.546" width="10" height="319.138" fill="#FFF" style="stroke:#181818;stroke-width:1;"/></g><g><title>.AuthController</title><rect x="500.409" y="120.897" width="8" height="363.787" fill="#000" fill-opacity="0"/><line x1="503.909" y1="120.897" x2="503.909" y2="484.685" style="stroke:#000;stroke-width:0.5;stroke-dasharray:5,5;"/></g><g><title></title><rect x="498.909" y="227.493" width="10" height="212.542" fill="#FFF" style="stroke:#181818;stroke-width:1;"/></g><g><title>.UsuarioDAO</title><rect x="709.286" y="120.897" width="8" height="363.787" fill="#000" fill-opacity="0"/><line x1="712.786" y1="120.897" x2="712.786" y2="484.685" style="stroke:#000;stroke-width:0.5;stroke-dasharray:5,5;"/></g><g><title></title><rect x="707.786" y="293.791" width="10" height="79.947" fill="#FFF" style="stroke:#181818;stroke-width:1;"/></g><g><title>.PerfilDAO</title><rect x="825.425" y="120.897" width="8" height="363.787" fill="#000" fill-opacity="0"/><line x1="828.925" y1="120.897" x2="828.925" y2="484.685" style="stroke:#000;stroke-width:0.5;stroke-dasharray:5,5;"/></g><g><title></title><rect x="823.925" y="320.44" width="10" height="26.649" fill="#FFF" style="stroke:#181818;stroke-width:1;"/></g><text x="20" y="118.354" fill="#000" font-size="12" textLength="46.025" font-family="Arial">Visitante</text><ellipse cx="46.013" cy="55.599" rx="8" ry="8" fill="#FFC" style="stroke:#000;stroke-width:0.5;"/><path d="M46.013,63.599 L46.013,90.599 M33.013,71.599 L59.013,71.599 M46.013,90.599 L33.013,105.599 M46.013,90.599 L59.013,105.599" style="stroke:#000;stroke-width:0.5;" fill="none"/><text x="239.492" y="118.354" fill="#000" font-size="12" textLength="75.369" font-family="Arial">:TelaCadastro</text><path d="M259.676,79.099 L259.676,103.099 M259.676,91.099 L276.676,91.099" style="stroke:#000;stroke-width:0.5;" fill="none"/><ellipse cx="288.676" cy="91.099" rx="12" ry="12" fill="#FFC" style="stroke:#000;stroke-width:0.5;"/><text x="460.889" y="118.354" fill="#000" font-size="12" textLength="80.039" font-family="Arial">:AuthController</text><ellipse cx="503.909" cy="91.099" rx="12" ry="12" fill="#FFC" style="stroke:#000;stroke-width:0.5;"/><polygon points="499.909,79.099,505.909,74.099,503.909,79.099,505.909,84.099,499.909,79.099" fill="#000" style="stroke:#000;stroke-width:1;stroke-linejoin:miter;stroke-miterlimit:10;"/><text x="674.442" y="118.354" fill="#000" font-size="12" textLength="70.688" font-family="Arial">:UsuarioDAO</text><ellipse cx="712.786" cy="91.099" rx="12" ry="12" fill="#FFC" style="stroke:#000;stroke-width:0.5;"/><line x1="700.786" y1="105.099" x2="724.786" y2="105.099" style="stroke:#000;stroke-width:0.5;"/><text x="797.586" y="118.354" fill="#000" font-size="12" textLength="56.678" font-family="Arial">:PerfilDAO</text><ellipse cx="828.925" cy="91.099" rx="12" ry="12" fill="#FFC" style="stroke:#000;stroke-width:0.5;"/><line x1="816.925" y1="105.099" x2="840.925" y2="105.099" style="stroke:#000;stroke-width:0.5;"/><polygon points="263.176,143.546,273.176,147.546,263.176,151.546,267.176,147.546" fill="#000" style="stroke:#000;stroke-width:1;stroke-linejoin:miter;stroke-miterlimit:10;"/><line x1="46.013" y1="147.546" x2="269.176" y2="147.546" style="stroke:#000;stroke-width:1;"/><text x="53.013" y="143.215" fill="#000" font-size="11" textLength="9.174" font-family="Arial">1:</text><text x="66.187" y="143.215" fill="#000" font-size="11" textLength="149.784" font-family="Arial">solicitar formulário de cadastro</text><polygon points="57.013,170.195,47.013,174.195,57.013,178.195,53.013,174.195" fill="#000" style="stroke:#000;stroke-width:1;stroke-linejoin:miter;stroke-miterlimit:10;"/><line x1="51.013" y1="174.195" x2="274.176" y2="174.195" style="stroke:#000;stroke-width:1;stroke-dasharray:2,2;"/><text x="63.013" y="169.864" fill="#000" font-size="11" textLength="9.174" font-family="Arial">2:</text><text x="76.187" y="169.864" fill="#000" font-size="11" textLength="78.246" font-family="Arial">exibir formulário</text><polygon points="263.176,196.844,273.176,200.844,263.176,204.844,267.176,200.844" fill="#000" style="stroke:#000;stroke-width:1;stroke-linejoin:miter;stroke-miterlimit:10;"/><line x1="46.013" y1="200.844" x2="269.176" y2="200.844" style="stroke:#000;stroke-width:1;"/><text x="53.013" y="196.513" fill="#000" font-size="11" textLength="9.174" font-family="Arial">3:</text><text x="66.187" y="196.513" fill="#000" font-size="11" textLength="191.99" font-family="Arial">preencher dados e aceitar termo LGPD</text><polygon points="486.909,223.493,496.909,227.493,486.909,231.493,490.909,227.493" fill="#000" style="stroke:#000;stroke-width:1;stroke-linejoin:miter;stroke-miterlimit:10;"/><line x1="285.176" y1="227.493" x2="492.909" y2="227.493" style="stroke:#000;stroke-width:1;"/><text x="292.176" y="223.162" fill="#000" font-size="11" textLength="9.174" font-family="Arial">4:</text><text x="305.35" y="223.162" fill="#000" font-size="11" textLength="79.487" font-family="Arial">cadastro(dados)</text><line x1="508.909" y1="254.142" x2="550.909" y2="254.142" style="stroke:#000;stroke-width:1;"/><line x1="550.909" y1="254.142" x2="550.909" y2="267.142" style="stroke:#000;stroke-width:1;"/><line x1="509.909" y1="267.142" x2="550.909" y2="267.142" style="stroke:#000;stroke-width:1;"/><polygon points="519.909,263.142,509.909,267.142,519.909,271.142,515.909,267.142" fill="#000" style="stroke:#000;stroke-width:1;stroke-linejoin:miter;stroke-miterlimit:10;"/><text x="515.909" y="249.811" fill="#000" font-size="11" textLength="9.174" font-family="Arial">5:</text><text x="529.083" y="249.811" fill="#000" font-size="11" textLength="176.704" font-family="Arial">validar nome, e-mail, senha e aceite</text><polygon points="695.786,289.791,705.786,293.791,695.786,297.791,699.786,293.791" fill="#000" style="stroke:#000;stroke-width:1;stroke-linejoin:miter;stroke-miterlimit:10;"/><line x1="508.909" y1="293.791" x2="701.786" y2="293.791" style="stroke:#000;stroke-width:1;"/><text x="515.909" y="289.46" fill="#000" font-size="11" textLength="9.174" font-family="Arial">6:</text><text x="529.083" y="289.46" fill="#000" font-size="11" textLength="114.302" font-family="Arial">cadastrar(UsuarioDTO)</text><polygon points="811.925,316.44,821.925,320.44,811.925,324.44,815.925,320.44" fill="#000" style="stroke:#000;stroke-width:1;stroke-linejoin:miter;stroke-miterlimit:10;"/><line x1="717.786" y1="320.44" x2="817.925" y2="320.44" style="stroke:#000;stroke-width:1;"/><text x="724.786" y="316.109" fill="#000" font-size="11" textLength="9.174" font-family="Arial">7:</text><text x="737.96" y="316.109" fill="#000" font-size="11" textLength="73.965" font-family="Arial">criar(usuarioId)</text><polygon points="728.786,343.089,718.786,347.089,728.786,351.089,724.786,347.089" fill="#000" style="stroke:#000;stroke-width:1;stroke-linejoin:miter;stroke-miterlimit:10;"/><line x1="722.786" y1="347.089" x2="822.925" y2="347.089" style="stroke:#000;stroke-width:1;stroke-dasharray:2,2;"/><text x="734.786" y="342.758" fill="#000" font-size="11" textLength="9.174" font-family="Arial">8:</text><text x="747.96" y="342.758" fill="#000" font-size="11" textLength="33.016" font-family="Arial">perfilId</text><polygon points="519.909,369.738,509.909,373.738,519.909,377.738,515.909,373.738" fill="#000" style="stroke:#000;stroke-width:1;stroke-linejoin:miter;stroke-miterlimit:10;"/><line x1="513.909" y1="373.738" x2="706.786" y2="373.738" style="stroke:#000;stroke-width:1;stroke-dasharray:2,2;"/><text x="525.909" y="369.407" fill="#000" font-size="11" textLength="9.174" font-family="Arial">9:</text><text x="539.083" y="369.407" fill="#000" font-size="11" textLength="45.251" font-family="Arial">usuarioId</text><line x1="508.909" y1="400.387" x2="550.909" y2="400.387" style="stroke:#000;stroke-width:1;"/><line x1="550.909" y1="400.387" x2="550.909" y2="413.387" style="stroke:#000;stroke-width:1;"/><line x1="509.909" y1="413.387" x2="550.909" y2="413.387" style="stroke:#000;stroke-width:1;"/><polygon points="519.909,409.387,509.909,413.387,519.909,417.387,515.909,413.387" fill="#000" style="stroke:#000;stroke-width:1;stroke-linejoin:miter;stroke-miterlimit:10;"/><text x="515.909" y="396.056" fill="#000" font-size="11" textLength="15.292" font-family="Arial">10:</text><text x="535.2" y="396.056" fill="#000" font-size="11" textLength="119.222" font-family="Arial">iniciar_sessao_usuario()</text><polygon points="296.176,436.036,286.176,440.036,296.176,444.036,292.176,440.036" fill="#000" style="stroke:#000;stroke-width:1;stroke-linejoin:miter;stroke-miterlimit:10;"/><line x1="290.176" y1="440.036" x2="497.909" y2="440.036" style="stroke:#000;stroke-width:1;stroke-dasharray:2,2;"/><text x="302.176" y="435.705" fill="#000" font-size="11" textLength="15.292" font-family="Arial">11:</text><text x="321.468" y="435.705" fill="#000" font-size="11" textLength="170.441" font-family="Arial">"Cadastro realizado com sucesso!"</text><polygon points="57.013,462.685,47.013,466.685,57.013,470.685,53.013,466.685" fill="#000" style="stroke:#000;stroke-width:1;stroke-linejoin:miter;stroke-miterlimit:10;"/><line x1="51.013" y1="466.685" x2="274.176" y2="466.685" style="stroke:#000;stroke-width:1;stroke-dasharray:2,2;"/><text x="63.013" y="462.354" fill="#000" font-size="11" textLength="15.292" font-family="Arial">12:</text><text x="82.304" y="462.354" fill="#000" font-size="11" textLength="53.185" font-family="Arial">exibir perfil</text><?plantuml-src LP91JiCm44NtFiMGLIieOfq54WeIgeJKB99iqJIPgfOS3nhRg70RpiB5c3X94Slul_dvy-qRwtkN1W8AqJg-jsbqPaJhJu8ZGHYWmW5351JesKSqc2BxD1v9e7We2tEsEdrYZaU-68DzP87E1XlHHm8Cq9aZ9p-WV49HDkHmSUHYKXipsGex5PzIF5VpboF9ScN8HnkdqJOa5ClFJuUij7zAJNAoRXLgqy7k4HgulOKI0ZlRQnZHZ38cz_Ej7g2H-oM5QM2dUASiNUpH_WDNgnBUXSZtPzrwm843w6ezPTz8CZAyljJFazKZLFEFL_zDvhUcchKIFj1PRGCyZtG7jDEstHq4ycTSNMccstzEA9krWkQmDUr4r0iXLjKqg_jXQ-gyaoAxANgkPpzC8pb3FhtIVycirwfGtWA5WFos49kSFTUG1ulr_a18L_dIzVHfZ11IhtDyKrmRpVXIwXpY5m00?></g></svg>