<svg xmlns="http://www.w3.org/2000/svg" xmlns:xlink="http://www.w3.org/1999/xlink" version="1.1" data-diagram-type="SEQUENCE" style="width:734px;height:584px;background:#FFFFFF;" width="734px" height="584px" viewBox="0 0 734 584" zoomAndPan="magnify" preserveAspectRatio="none" contentStyleType="text/css"><?plantuml 1.2026.8?><defs/><g font-family="sans-serif" lengthAdjust="spacing"><rect x="10" y="15" width="713.058" height="553.73" fill="#FFF" style="stroke:#181818;stroke-width:1.5;"/><path d="M114.158,15 L114.158,24.099 L104.158,34.099 L10,34.099" style="stroke:#181818;stroke-width:1.5;" fill="none"/><text x="13" y="29.132" fill="#000" font-size="14" textLength="94.158" font-family="Arial">sd Alterar vaga</text><g><title>Empresa</title><rect x="43.509" y="120.897" width="8" height="430.734" fill="#000" fill-opacity="0"/><line x1="47.009" y1="120.897" x2="47.009" y2="551.631" style="stroke:#000;stroke-width:0.5;stroke-dasharray:5,5;"/></g><g><title>.TelaVagas</title><rect x="175.557" y="120.897" width="8" height="430.734" fill="#000" fill-opacity="0"/><line x1="179.057" y1="120.897" x2="179.057" y2="551.631" style="stroke:#000;stroke-width:0.5;stroke-dasharray:5,5;"/></g><g><title></title><rect x="174.057" y="147.546" width="10" height="133.245" fill="#FFF" style="stroke:#181818;stroke-width:1;"/></g><g><title></title><rect x="174.057" y="307.44" width="10" height="226.191" fill="#FFF" style="stroke:#181818;stroke-width:1;"/></g><g><title>.EmpresaController</title><rect x="370.898" y="120.897" width="8" height="430.734" fill="#000" fill-opacity="0"/><line x1="374.398" y1="120.897" x2="374.398" y2="551.631" style="stroke:#000;stroke-width:0.5;stroke-dasharray:5,5;"/></g><g><title></title><rect x="369.398" y="174.195" width="10" height="79.947" fill="#FFF" style="stroke:#181818;stroke-width:1;"/></g><g><title></title><rect x="369.398" y="334.089" width="10" height="172.894" fill="#FFF" style="stroke:#181818;stroke-width:1;"/></g><g><title>.VagaDAO</title><rect x="584.851" y="120.897" width="8" height="430.734" fill="#000" fill-opacity="0"/><line x1="588.351" y1="120.897" x2="588.351" y2="551.631" style="stroke:#000;stroke-width:0.5;stroke-dasharray:5,5;"/></g><g><title></title><rect x="583.351" y="200.844" width="10" height="26.649" fill="#FFF" style="stroke:#181818;stroke-width:1;"/></g><g><title></title><rect x="583.351" y="400.387" width="10" height="26.649" fill="#FFF" style="stroke:#181818;stroke-width:1;"/></g><g><title>.MatchService</title><rect x="667.545" y="120.897" width="8" height="430.734" fill="#000" fill-opacity="0"/><line x1="671.045" y1="120.897" x2="671.045" y2="551.631" style="stroke:#000;stroke-width:0.5;stroke-dasharray:5,5;"/></g><g><title></title><rect x="666.045" y="453.685" width="10" height="26.649" fill="#FFF" style="stroke:#181818;stroke-width:1;"/></g><text x="20" y="118.354" fill="#000" font-size="12" textLength="48.018" font-family="Arial">Empresa</text><ellipse cx="47.009" cy="55.599" rx="8" ry="8" fill="#FFC" style="stroke:#000;stroke-width:0.5;"/><path d="M47.009,63.599 L47.009,90.599 M34.009,71.599 L60.009,71.599 M47.009,90.599 L34.009,105.599 M47.009,90.599 L60.009,105.599" style="stroke:#000;stroke-width:0.5;" fill="none"/><text x="145.706" y="118.354" fill="#000" font-size="12" textLength="60.703" font-family="Arial">:TelaVagas</text><path d="M158.557,79.099 L158.557,103.099 M158.557,91.099 L175.557,91.099" style="stroke:#000;stroke-width:0.5;" fill="none"/><ellipse cx="187.557" cy="91.099" rx="12" ry="12" fill="#FFC" style="stroke:#000;stroke-width:0.5;"/><text x="319.713" y="118.354" fill="#000" font-size="12" textLength="103.371" font-family="Arial">:EmpresaController</text><ellipse cx="374.398" cy="91.099" rx="12" ry="12" fill="#FFC" style="stroke:#000;stroke-width:0.5;"/><polygon points="370.398,79.099,376.398,74.099,374.398,79.099,376.398,84.099,370.398,79.099" fill="#000" style="stroke:#000;stroke-width:1;stroke-linejoin:miter;stroke-miterlimit:10;"/><text x="556.669" y="118.354" fill="#000" font-size="12" textLength="57.363" font-family="Arial">:VagaDAO</text><ellipse cx="588.351" cy="91.099" rx="12" ry="12" fill="#FFC" style="stroke:#000;stroke-width:0.5;"/><line x1="576.351" y1="105.099" x2="600.351" y2="105.099" style="stroke:#000;stroke-width:0.5;"/><text x="630.032" y="118.354" fill="#000" font-size="12" textLength="76.025" font-family="Arial">:MatchService</text><ellipse cx="671.045" cy="91.099" rx="12" ry="12" fill="#FFC" style="stroke:#000;stroke-width:0.5;"/><polygon points="667.045,79.099,673.045,74.099,671.045,79.099,673.045,84.099,667.045,79.099" fill="#000" style="stroke:#000;stroke-width:1;stroke-linejoin:miter;stroke-miterlimit:10;"/><polygon points="162.057,143.546,172.057,147.546,162.057,151.546,166.057,147.546" fill="#000" style="stroke:#000;stroke-width:1;stroke-linejoin:miter;stroke-miterlimit:10;"/><line x1="47.009" y1="147.546" x2="168.057" y2="147.546" style="stroke:#000;stroke-width:1;"/><text x="54.009" y="143.215" fill="#000" font-size="11" textLength="9.174" font-family="Arial">1:</text><text x="67.183" y="143.215" fill="#000" font-size="11" textLength="83.606" font-family="Arial">clicar em "Editar"</text><polygon points="357.398,170.195,367.398,174.195,357.398,178.195,361.398,174.195" fill="#000" style="stroke:#000;stroke-width:1;stroke-linejoin:miter;stroke-miterlimit:10;"/><line x1="184.057" y1="174.195" x2="363.398" y2="174.195" style="stroke:#000;stroke-width:1;"/><text x="191.057" y="169.864" fill="#000" font-size="11" textLength="9.174" font-family="Arial">2:</text><text x="204.231" y="169.864" fill="#000" font-size="11" textLength="75.512" font-family="Arial">vagas(edit = id)</text><polygon points="571.351,196.844,581.351,200.844,571.351,204.844,575.351,200.844" fill="#000" style="stroke:#000;stroke-width:1;stroke-linejoin:miter;stroke-miterlimit:10;"/><line x1="379.398" y1="200.844" x2="577.351" y2="200.844" style="stroke:#000;stroke-width:1;"/><text x="386.398" y="196.513" fill="#000" font-size="11" textLength="9.174" font-family="Arial">3:</text><text x="399.572" y="196.513" fill="#000" font-size="11" textLength="48.904" font-family="Arial">buscar(id)</text><polygon points="390.398,223.493,380.398,227.493,390.398,231.493,386.398,227.493" fill="#000" style="stroke:#000;stroke-width:1;stroke-linejoin:miter;stroke-miterlimit:10;"/><line x1="384.398" y1="227.493" x2="582.351" y2="227.493" style="stroke:#000;stroke-width:1;stroke-dasharray:2,2;"/><text x="396.398" y="223.162" fill="#000" font-size="11" textLength="9.174" font-family="Arial">4:</text><text x="409.572" y="223.162" fill="#000" font-size="11" textLength="72.171" font-family="Arial">dados da vaga</text><polygon points="195.057,250.142,185.057,254.142,195.057,258.142,191.057,254.142" fill="#000" style="stroke:#000;stroke-width:1;stroke-linejoin:miter;stroke-miterlimit:10;"/><line x1="189.057" y1="254.142" x2="368.398" y2="254.142" style="stroke:#000;stroke-width:1;stroke-dasharray:2,2;"/><text x="201.057" y="249.811" fill="#000" font-size="11" textLength="9.174" font-family="Arial">5:</text><text x="214.231" y="249.811" fill="#000" font-size="11" textLength="106.391" font-family="Arial">formulário preenchido</text><polygon points="58.009,276.791,48.009,280.791,58.009,284.791,54.009,280.791" fill="#000" style="stroke:#000;stroke-width:1;stroke-linejoin:miter;stroke-miterlimit:10;"/><line x1="52.009" y1="280.791" x2="173.057" y2="280.791" style="stroke:#000;stroke-width:1;stroke-dasharray:2,2;"/><text x="64.009" y="276.46" fill="#000" font-size="11" textLength="9.174" font-family="Arial">6:</text><text x="77.183" y="276.46" fill="#000" font-size="11" textLength="78.246" font-family="Arial">exibir formulário</text><polygon points="162.057,303.44,172.057,307.44,162.057,311.44,166.057,307.44" fill="#000" style="stroke:#000;stroke-width:1;stroke-linejoin:miter;stroke-miterlimit:10;"/><line x1="47.009" y1="307.44" x2="168.057" y2="307.44" style="stroke:#000;stroke-width:1;"/><text x="54.009" y="303.109" fill="#000" font-size="11" textLength="9.174" font-family="Arial">7:</text><text x="67.183" y="303.109" fill="#000" font-size="11" textLength="72.751" font-family="Arial">alterar e salvar</text><polygon points="357.398,330.089,367.398,334.089,357.398,338.089,361.398,334.089" fill="#000" style="stroke:#000;stroke-width:1;stroke-linejoin:miter;stroke-miterlimit:10;"/><line x1="184.057" y1="334.089" x2="363.398" y2="334.089" style="stroke:#000;stroke-width:1;"/><text x="191.057" y="329.758" fill="#000" font-size="11" textLength="9.174" font-family="Arial">8:</text><text x="204.231" y="329.758" fill="#000" font-size="11" textLength="153.167" font-family="Arial">vagas(acao = salvar, id, dados)</text><line x1="379.398" y1="360.738" x2="421.398" y2="360.738" style="stroke:#000;stroke-width:1;"/><line x1="421.398" y1="360.738" x2="421.398" y2="373.738" style="stroke:#000;stroke-width:1;"/><line x1="380.398" y1="373.738" x2="421.398" y2="373.738" style="stroke:#000;stroke-width:1;"/><polygon points="390.398,369.738,380.398,373.738,390.398,377.738,386.398,373.738" fill="#000" style="stroke:#000;stroke-width:1;stroke-linejoin:miter;stroke-miterlimit:10;"/><text x="386.398" y="356.407" fill="#000" font-size="11" textLength="9.174" font-family="Arial">9:</text><text x="399.572" y="356.407" fill="#000" font-size="11" textLength="106.407" font-family="Arial">conferir dona da vaga</text><polygon points="571.351,396.387,581.351,400.387,571.351,404.387,575.351,400.387" fill="#000" style="stroke:#000;stroke-width:1;stroke-linejoin:miter;stroke-miterlimit:10;"/><line x1="379.398" y1="400.387" x2="577.351" y2="400.387" style="stroke:#000;stroke-width:1;"/><text x="386.398" y="396.056" fill="#000" font-size="11" textLength="15.292" font-family="Arial">10:</text><text x="405.69" y="396.056" fill="#000" font-size="11" textLength="165.661" font-family="Arial">salvarComLimite(dados, id, limite)</text><polygon points="390.398,423.036,380.398,427.036,390.398,431.036,386.398,427.036" fill="#000" style="stroke:#000;stroke-width:1;stroke-linejoin:miter;stroke-miterlimit:10;"/><line x1="384.398" y1="427.036" x2="582.351" y2="427.036" style="stroke:#000;stroke-width:1;stroke-dasharray:2,2;"/><text x="396.398" y="422.705" fill="#000" font-size="11" textLength="15.292" font-family="Arial">11:</text><text x="415.69" y="422.705" fill="#000" font-size="11" textLength="8.562" font-family="Arial">id</text><polygon points="654.045,449.685,664.045,453.685,654.045,457.685,658.045,453.685" fill="#000" style="stroke:#000;stroke-width:1;stroke-linejoin:miter;stroke-miterlimit:10;"/><line x1="379.398" y1="453.685" x2="660.045" y2="453.685" style="stroke:#000;stroke-width:1;"/><text x="386.398" y="449.354" fill="#000" font-size="11" textLength="15.292" font-family="Arial">12:</text><text x="405.69" y="449.354" fill="#000" font-size="11" textLength="89.262" font-family="Arial">recalcularVaga(id)</text><polygon points="390.398,476.333,380.398,480.333,390.398,484.333,386.398,480.333" fill="#000" style="stroke:#000;stroke-width:1;stroke-linejoin:miter;stroke-miterlimit:10;"/><line x1="384.398" y1="480.333" x2="665.045" y2="480.333" style="stroke:#000;stroke-width:1;stroke-dasharray:2,2;"/><text x="396.398" y="476.002" fill="#000" font-size="11" textLength="15.292" font-family="Arial">13:</text><text x="415.69" y="476.002" fill="#000" font-size="11" textLength="11.618" font-family="Arial">ok</text><polygon points="195.057,502.982,185.057,506.982,195.057,510.982,191.057,506.982" fill="#000" style="stroke:#000;stroke-width:1;stroke-linejoin:miter;stroke-miterlimit:10;"/><line x1="189.057" y1="506.982" x2="368.398" y2="506.982" style="stroke:#000;stroke-width:1;stroke-dasharray:2,2;"/><text x="201.057" y="502.651" fill="#000" font-size="11" textLength="15.292" font-family="Arial">14:</text><text x="220.349" y="502.651" fill="#000" font-size="11" textLength="89.762" font-family="Arial">"Vaga atualizada."</text><polygon points="58.009,529.631,48.009,533.631,58.009,537.631,54.009,533.631" fill="#000" style="stroke:#000;stroke-width:1;stroke-linejoin:miter;stroke-miterlimit:10;"/><line x1="52.009" y1="533.631" x2="173.057" y2="533.631" style="stroke:#000;stroke-width:1;stroke-dasharray:2,2;"/><text x="64.009" y="529.3" fill="#000" font-size="11" textLength="15.292" font-family="Arial">15:</text><text x="83.3" y="529.3" fill="#000" font-size="11" textLength="83.757" font-family="Arial">exibir mensagem</text><?plantuml-src RP51RXin34NtEWKpAnU9WwuDD40mdbsDBZh8dYFHCH5932Z9I7kRdgKNYpGo2gV8PXPy_rEVVsuuMbyS0QNCNkwv16y2SZmg1eBauD5dKbGuupCQB5bY2Gif35ztWpbnjHv5yY9lng3DeZ25LwM4W0aciqY93lKN3BkPF3xL9MbeQ3PMObRnbLmSOnzuqbKn6egPSxCss_xnnphUNnaFcEtf9-cPBQtmO2ROFi0CjxUm0-lPrkGKO9WSPzJ1p0sF7RUBqeOgWM_0xeiP6zntk9HKlPistiDsDMstTUxGIQhVtiUuehcZesWe_kyVPO5w44LRwv7sPDLCNKDllB1UIpyanalPjNdqPzHFyg95gNaxlwkvxtgcI_ontItnI5gVSHBnEkk_wxfxbF2T0sVQh1lwChzE_hkQNRSVkbt9ehV5exO_ivPqk9RBoyTcXYO3p0Kz_qQ7zyEdhGIA2Pyfl0C0?></g></svg>