<svg xmlns="http://www.w3.org/2000/svg" xmlns:xlink="http://www.w3.org/1999/xlink" version="1.1" data-diagram-type="SEQUENCE" style="width:637px;height:331px;background:#FFFFFF;" width="637px" height="331px" viewBox="0 0 637 331" zoomAndPan="magnify" preserveAspectRatio="none" contentStyleType="text/css"><?plantuml 1.2026.8?><defs/><g font-family="sans-serif" lengthAdjust="spacing"><rect x="10" y="15" width="616.935" height="300.89" fill="#FFF" style="stroke:#181818;stroke-width:1.5;"/><path d="M171.758,15 L171.758,24.099 L161.758,34.099 L10,34.099" style="stroke:#181818;stroke-width:1.5;" fill="none"/><text x="13" y="29.132" fill="#000" font-size="14" textLength="151.758" font-family="Arial">sd Cancelar candidatura</text><g><title>Candidato</title><rect x="46.854" y="120.897" width="8" height="177.894" fill="#000" fill-opacity="0"/><line x1="50.354" y1="120.897" x2="50.354" y2="298.791" style="stroke:#000;stroke-width:0.5;stroke-dasharray:5,5;"/></g><g><title>.TelaPerfil</title><rect x="187.921" y="120.897" width="8" height="177.894" fill="#000" fill-opacity="0"/><line x1="191.421" y1="120.897" x2="191.421" y2="298.791" style="stroke:#000;stroke-width:0.5;stroke-dasharray:5,5;"/></g><g><title></title><rect x="186.421" y="147.546" width="10" height="133.245" fill="#FFF" style="stroke:#181818;stroke-width:1;"/></g><g><title>.CandidaturaController</title><rect x="359.097" y="120.897" width="8" height="177.894" fill="#000" fill-opacity="0"/><line x1="362.597" y1="120.897" x2="362.597" y2="298.791" style="stroke:#000;stroke-width:0.5;stroke-dasharray:5,5;"/></g><g><title></title><rect x="357.597" y="174.195" width="10" height="79.947" fill="#FFF" style="stroke:#181818;stroke-width:1;"/></g><g><title>.CandidaturaDAO</title><rect x="562.076" y="120.897" width="8" height="177.894" fill="#000" fill-opacity="0"/><line x1="565.576" y1="120.897" x2="565.576" y2="298.791" style="stroke:#000;stroke-width:0.5;stroke-dasharray:5,5;"/></g><g><title></title><rect x="560.576" y="200.844" width="10" height="26.649" fill="#FFF" style="stroke:#181818;stroke-width:1;"/></g><text x="20" y="118.354" fill="#000" font-size="12" textLength="54.709" font-family="Arial">Candidato</text><ellipse cx="50.354" cy="55.599" rx="8" ry="8" fill="#FFC" style="stroke:#000;stroke-width:0.5;"/><path d="M50.354,63.599 L50.354,90.599 M37.354,71.599 L63.354,71.599 M50.354,90.599 L37.354,105.599 M50.354,90.599 L63.354,105.599" style="stroke:#000;stroke-width:0.5;" fill="none"/><text x="161.412" y="118.354" fill="#000" font-size="12" textLength="54.018" font-family="Arial">:TelaPerfil</text><path d="M170.921,79.099 L170.921,103.099 M170.921,91.099 L187.921,91.099" style="stroke:#000;stroke-width:0.5;" fill="none"/><ellipse cx="199.921" cy="91.099" rx="12" ry="12" fill="#FFC" style="stroke:#000;stroke-width:0.5;"/><text x="299.231" y="118.354" fill="#000" font-size="12" textLength="120.732" font-family="Arial">:CandidaturaController</text><ellipse cx="362.597" cy="91.099" rx="12" ry="12" fill="#FFC" style="stroke:#000;stroke-width:0.5;"/><polygon points="358.597,79.099,364.597,74.099,362.597,79.099,364.597,84.099,358.597,79.099" fill="#000" style="stroke:#000;stroke-width:1;stroke-linejoin:miter;stroke-miterlimit:10;"/><text x="515.218" y="118.354" fill="#000" font-size="12" textLength="94.717" font-family="Arial">:CandidaturaDAO</text><ellipse cx="565.576" cy="91.099" rx="12" ry="12" fill="#FFC" style="stroke:#000;stroke-width:0.5;"/><line x1="553.576" y1="105.099" x2="577.576" y2="105.099" style="stroke:#000;stroke-width:0.5;"/><polygon points="174.421,143.546,184.421,147.546,174.421,151.546,178.421,147.546" fill="#000" style="stroke:#000;stroke-width:1;stroke-linejoin:miter;stroke-miterlimit:10;"/><line x1="50.354" y1="147.546" x2="180.421" y2="147.546" style="stroke:#000;stroke-width:1;"/><text x="57.354" y="143.215" fill="#000" font-size="11" textLength="9.174" font-family="Arial">1:</text><text x="70.528" y="143.215" fill="#000" font-size="11" textLength="98.893" font-family="Arial">clicar em "Cancelar"</text><polygon points="345.597,170.195,355.597,174.195,345.597,178.195,349.597,174.195" fill="#000" style="stroke:#000;stroke-width:1;stroke-linejoin:miter;stroke-miterlimit:10;"/><line x1="196.421" y1="174.195" x2="351.597" y2="174.195" style="stroke:#000;stroke-width:1;"/><text x="203.421" y="169.864" fill="#000" font-size="11" textLength="9.174" font-family="Arial">2:</text><text x="216.595" y="169.864" fill="#000" font-size="11" textLength="57.465" font-family="Arial">cancelar(id)</text><polygon points="548.576,196.844,558.576,200.844,548.576,204.844,552.576,200.844" fill="#000" style="stroke:#000;stroke-width:1;stroke-linejoin:miter;stroke-miterlimit:10;"/><line x1="367.597" y1="200.844" x2="554.576" y2="200.844" style="stroke:#000;stroke-width:1;"/><text x="374.597" y="196.513" fill="#000" font-size="11" textLength="9.174" font-family="Arial">3:</text><text x="387.771" y="196.513" fill="#000" font-size="11" textLength="160.805" font-family="Arial">cancelarDoCandidato(id, perfilId)</text><polygon points="378.597,223.493,368.597,227.493,378.597,231.493,374.597,227.493" fill="#000" style="stroke:#000;stroke-width:1;stroke-linejoin:miter;stroke-miterlimit:10;"/><line x1="372.597" y1="227.493" x2="559.576" y2="227.493" style="stroke:#000;stroke-width:1;stroke-dasharray:2,2;"/><text x="384.597" y="223.162" fill="#000" font-size="11" textLength="9.174" font-family="Arial">4:</text><text x="397.771" y="223.162" fill="#000" font-size="11" textLength="18.955" font-family="Arial">true</text><polygon points="207.421,250.142,197.421,254.142,207.421,258.142,203.421,254.142" fill="#000" style="stroke:#000;stroke-width:1;stroke-linejoin:miter;stroke-miterlimit:10;"/><line x1="201.421" y1="254.142" x2="356.597" y2="254.142" style="stroke:#000;stroke-width:1;stroke-dasharray:2,2;"/><text x="213.421" y="249.811" fill="#000" font-size="11" textLength="9.174" font-family="Arial">5:</text><text x="226.595" y="249.811" fill="#000" font-size="11" textLength="124.002" font-family="Arial">"Candidatura cancelada."</text><polygon points="61.354,276.791,51.354,280.791,61.354,284.791,57.354,280.791" fill="#000" style="stroke:#000;stroke-width:1;stroke-linejoin:miter;stroke-miterlimit:10;"/><line x1="55.354" y1="280.791" x2="185.421" y2="280.791" style="stroke:#000;stroke-width:1;stroke-dasharray:2,2;"/><text x="67.354" y="276.46" fill="#000" font-size="11" textLength="9.174" font-family="Arial">6:</text><text x="80.528" y="276.46" fill="#000" font-size="11" textLength="83.757" font-family="Arial">exibir mensagem</text><?plantuml-src LOuzJiGm48Lxds9m1Lgoeaw15DaD5HIvmCIUm4Ys1pcsj7jx7EykiErxt_jvuEH2zGIq5Gvov1g3YiXfpHW9DWy6awE06HmcpnvBpQYm5aarBfH1lunQVN6hM4NA8YUbq1N9Ux3p0hZ1f1QfoMC-WnxdrlT1UUMWTszMJbB94ffb_aRCHGoKEsKKfSBbV0_PwRsxLaqmlC8CXmECu0AxzfWYwDjzhUOTC5VWgZwoVr9cD-ozOUNtVcEUuRlVVMkqXQ7t34F3Iwwqv_jqL_I_SxSsZyS-twZfGj695yuGAMtuIV47?></g></svg>