<svg xmlns="http://www.w3.org/2000/svg" xmlns:xlink="http://www.w3.org/1999/xlink" version="1.1" data-diagram-type="SEQUENCE" style="width:868px;height:671px;background:#FFFFFF;" width="868px" height="671px" viewBox="0 0 868 671" zoomAndPan="magnify" preserveAspectRatio="none" contentStyleType="text/css"><?plantuml 1.2026.8?><defs/><g font-family="sans-serif" lengthAdjust="spacing"><rect x="10" y="15" width="847.011" height="640.574" fill="#FFF" style="stroke:#181818;stroke-width:1.5;"/><path d="M229.303,15 L229.303,24.099 L219.303,34.099 L10,34.099" style="stroke:#181818;stroke-width:1.5;" fill="none"/><text x="13" y="29.132" fill="#000" font-size="14" textLength="209.303" font-family="Arial">sd Excluir a própria conta (LGPD)</text><g><title>Candidato</title><rect x="46.854" y="120.897" width="8" height="517.578" fill="#000" fill-opacity="0"/><line x1="50.354" y1="120.897" x2="50.354" y2="638.476" style="stroke:#000;stroke-width:0.5;stroke-dasharray:5,5;"/></g><g><title>.TelaPerfil</title><rect x="220.942" y="120.897" width="8" height="517.578" fill="#000" fill-opacity="0"/><line x1="224.442" y1="120.897" x2="224.442" y2="638.476" style="stroke:#000;stroke-width:0.5;stroke-dasharray:5,5;"/></g><g><title></title><rect x="219.442" y="160.195" width="10" height="460.28" fill="#FFF" style="stroke:#181818;stroke-width:1;"/></g><g><title>.PerfilController</title><rect x="440.808" y="120.897" width="8" height="517.578" fill="#000" fill-opacity="0"/><line x1="444.308" y1="120.897" x2="444.308" y2="638.476" style="stroke:#000;stroke-width:0.5;stroke-dasharray:5,5;"/></g><g><title></title><rect x="439.308" y="186.844" width="10" height="406.982" fill="#FFF" style="stroke:#181818;stroke-width:1;"/></g><g><title>.UsuarioDAO</title><rect x="639.511" y="120.897" width="8" height="517.578" fill="#000" fill-opacity="0"/><line x1="643.011" y1="120.897" x2="643.011" y2="638.476" style="stroke:#000;stroke-width:0.5;stroke-dasharray:5,5;"/></g><g><title></title><rect x="638.011" y="253.142" width="10" height="26.649" fill="#FFF" style="stroke:#181818;stroke-width:1;"/></g><g><title></title><rect x="638.011" y="306.44" width="10" height="26.649" fill="#FFF" style="stroke:#181818;stroke-width:1;"/></g><g><title></title><rect x="638.011" y="413.036" width="10" height="101.844" fill="#FFF" style="stroke:#181818;stroke-width:1;"/></g><g><title>.MaquinaAprendizado</title><rect x="749.229" y="120.897" width="8" height="517.578" fill="#000" fill-opacity="0"/><line x1="752.729" y1="120.897" x2="752.729" y2="638.476" style="stroke:#000;stroke-width:0.5;stroke-dasharray:5,5;"/></g><g><title></title><rect x="747.729" y="359.738" width="10" height="26.649" fill="#FFF" style="stroke:#181818;stroke-width:1;"/></g><text x="20" y="118.354" fill="#000" font-size="12" textLength="54.709" font-family="Arial">Candidato</text><ellipse cx="50.354" cy="55.599" rx="8" ry="8" fill="#FFC" style="stroke:#000;stroke-width:0.5;"/><path d="M50.354,63.599 L50.354,90.599 M37.354,71.599 L63.354,71.599 M50.354,90.599 L37.354,105.599 M50.354,90.599 L63.354,105.599" style="stroke:#000;stroke-width:0.5;" fill="none"/><text x="194.434" y="118.354" fill="#000" font-size="12" textLength="54.018" font-family="Arial">:TelaPerfil</text><path d="M203.942,79.099 L203.942,103.099 M203.942,91.099 L220.942,91.099" style="stroke:#000;stroke-width:0.5;" fill="none"/><ellipse cx="232.942" cy="91.099" rx="12" ry="12" fill="#FFC" style="stroke:#000;stroke-width:0.5;"/><text x="399.961" y="118.354" fill="#000" font-size="12" textLength="82.693" font-family="Arial">:PerfilController</text><ellipse cx="444.308" cy="91.099" rx="12" ry="12" fill="#FFC" style="stroke:#000;stroke-width:0.5;"/><polygon points="440.308,79.099,446.308,74.099,444.308,79.099,446.308,84.099,440.308,79.099" fill="#000" style="stroke:#000;stroke-width:1;stroke-linejoin:miter;stroke-miterlimit:10;"/><text x="604.667" y="118.354" fill="#000" font-size="12" textLength="70.688" font-family="Arial">:UsuarioDAO</text><ellipse cx="643.011" cy="91.099" rx="12" ry="12" fill="#FFC" style="stroke:#000;stroke-width:0.5;"/><line x1="631.011" y1="105.099" x2="655.011" y2="105.099" style="stroke:#000;stroke-width:0.5;"/><text x="691.355" y="118.354" fill="#000" font-size="12" textLength="116.748" font-family="Arial">:MaquinaAprendizado</text><ellipse cx="752.729" cy="91.099" rx="12" ry="12" fill="#FFC" style="stroke:#000;stroke-width:0.5;"/><polygon points="748.729,79.099,754.729,74.099,752.729,79.099,754.729,84.099,748.729,79.099" fill="#000" style="stroke:#000;stroke-width:1;stroke-linejoin:miter;stroke-miterlimit:10;"/><polygon points="207.442,156.195,217.442,160.195,207.442,164.195,211.442,160.195" fill="#000" style="stroke:#000;stroke-width:1;stroke-linejoin:miter;stroke-miterlimit:10;"/><line x1="50.354" y1="160.195" x2="213.442" y2="160.195" style="stroke:#000;stroke-width:1;"/><text x="57.354" y="149.54" fill="#000" font-size="11" textLength="9.174" font-family="Arial">1:</text><text x="70.528" y="143.215" fill="#000" font-size="11" textLength="131.914" font-family="Arial">abrir "Excluir minha conta",</text><text x="70.528" y="155.864" fill="#000" font-size="11" textLength="130.233" font-family="Arial">digitar a senha e confirmar</text><polygon points="427.308,182.844,437.308,186.844,427.308,190.844,431.308,186.844" fill="#000" style="stroke:#000;stroke-width:1;stroke-linejoin:miter;stroke-miterlimit:10;"/><line x1="229.442" y1="186.844" x2="433.308" y2="186.844" style="stroke:#000;stroke-width:1;"/><text x="236.442" y="182.513" fill="#000" font-size="11" textLength="9.174" font-family="Arial">2:</text><text x="249.616" y="182.513" fill="#000" font-size="11" textLength="146.728" font-family="Arial">excluirConta(senha, confirmo)</text><line x1="449.308" y1="213.493" x2="491.308" y2="213.493" style="stroke:#000;stroke-width:1;"/><line x1="491.308" y1="213.493" x2="491.308" y2="226.493" style="stroke:#000;stroke-width:1;"/><line x1="450.308" y1="226.493" x2="491.308" y2="226.493" style="stroke:#000;stroke-width:1;"/><polygon points="460.308,222.493,450.308,226.493,460.308,230.493,456.308,226.493" fill="#000" style="stroke:#000;stroke-width:1;stroke-linejoin:miter;stroke-miterlimit:10;"/><text x="456.308" y="209.162" fill="#000" font-size="11" textLength="9.174" font-family="Arial">3:</text><text x="469.481" y="209.162" fill="#000" font-size="11" textLength="63.567" font-family="Arial">validar_csrf()</text><polygon points="626.011,249.142,636.011,253.142,626.011,257.142,630.011,253.142" fill="#000" style="stroke:#000;stroke-width:1;stroke-linejoin:miter;stroke-miterlimit:10;"/><line x1="449.308" y1="253.142" x2="632.011" y2="253.142" style="stroke:#000;stroke-width:1;"/><text x="456.308" y="248.811" fill="#000" font-size="11" textLength="9.174" font-family="Arial">4:</text><text x="469.481" y="248.811" fill="#000" font-size="11" textLength="156.53" font-family="Arial">minutosBloqueioLogin(ip, email)</text><polygon points="460.308,275.791,450.308,279.791,460.308,283.791,456.308,279.791" fill="#000" style="stroke:#000;stroke-width:1;stroke-linejoin:miter;stroke-miterlimit:10;"/><line x1="454.308" y1="279.791" x2="637.011" y2="279.791" style="stroke:#000;stroke-width:1;stroke-dasharray:2,2;"/><text x="466.308" y="275.46" fill="#000" font-size="11" textLength="9.174" font-family="Arial">5:</text><text x="479.481" y="275.46" fill="#000" font-size="11" textLength="70.308" font-family="Arial">0 (sem pausa)</text><polygon points="626.011,302.44,636.011,306.44,626.011,310.44,630.011,306.44" fill="#000" style="stroke:#000;stroke-width:1;stroke-linejoin:miter;stroke-miterlimit:10;"/><line x1="449.308" y1="306.44" x2="632.011" y2="306.44" style="stroke:#000;stroke-width:1;"/><text x="456.308" y="302.109" fill="#000" font-size="11" textLength="9.174" font-family="Arial">6:</text><text x="469.481" y="302.109" fill="#000" font-size="11" textLength="121.075" font-family="Arial">senhaConfere(id, senha)</text><polygon points="460.308,329.089,450.308,333.089,460.308,337.089,456.308,333.089" fill="#000" style="stroke:#000;stroke-width:1;stroke-linejoin:miter;stroke-miterlimit:10;"/><line x1="454.308" y1="333.089" x2="637.011" y2="333.089" style="stroke:#000;stroke-width:1;stroke-dasharray:2,2;"/><text x="466.308" y="328.758" fill="#000" font-size="11" textLength="9.174" font-family="Arial">7:</text><text x="479.481" y="328.758" fill="#000" font-size="11" textLength="18.955" font-family="Arial">true</text><polygon points="735.729,355.738,745.729,359.738,735.729,363.738,739.729,359.738" fill="#000" style="stroke:#000;stroke-width:1;stroke-linejoin:miter;stroke-miterlimit:10;"/><line x1="449.308" y1="359.738" x2="741.729" y2="359.738" style="stroke:#000;stroke-width:1;"/><text x="456.308" y="355.407" fill="#000" font-size="11" textLength="9.174" font-family="Arial">8:</text><text x="469.481" y="355.407" fill="#000" font-size="11" textLength="113.104" font-family="Arial">esquecerDoUsuario(id)</text><polygon points="460.308,382.387,450.308,386.387,460.308,390.387,456.308,386.387" fill="#000" style="stroke:#000;stroke-width:1;stroke-linejoin:miter;stroke-miterlimit:10;"/><line x1="454.308" y1="386.387" x2="746.729" y2="386.387" style="stroke:#000;stroke-width:1;stroke-dasharray:2,2;"/><text x="466.308" y="382.056" fill="#000" font-size="11" textLength="9.174" font-family="Arial">9:</text><text x="479.481" y="382.056" fill="#000" font-size="11" textLength="79.503" font-family="Arial">lições apagadas</text><polygon points="626.011,409.036,636.011,413.036,626.011,417.036,630.011,413.036" fill="#000" style="stroke:#000;stroke-width:1;stroke-linejoin:miter;stroke-miterlimit:10;"/><line x1="449.308" y1="413.036" x2="632.011" y2="413.036" style="stroke:#000;stroke-width:1;"/><text x="456.308" y="408.705" fill="#000" font-size="11" textLength="15.292" font-family="Arial">10:</text><text x="475.599" y="408.705" fill="#000" font-size="11" textLength="47.674" font-family="Arial">excluir(id)</text><path d="M653.011,426.036 L653.011,491.036 L840.011,491.036 L840.011,436.036 L830.011,426.036 L653.011,426.036" style="stroke:#000;stroke-width:0.5;" fill="#FFC"/><path d="M830.011,426.036 L830.011,436.036 L840.011,436.036 L830.011,426.036" style="stroke:#000;stroke-width:0.5;" fill="#FFC"/><text x="659.011" y="442.292" fill="#000" font-size="12" textLength="136.049" font-family="Arial">cascata: perfil, currículos,</text><text x="659.011" y="456.09" fill="#000" font-size="12" textLength="130.74" font-family="Arial">candidaturas, matches e</text><text x="659.011" y="469.889" fill="#000" font-size="12" textLength="166.102" font-family="Arial">assinaturas; apaga os arquivos</text><text x="659.011" y="483.688" fill="#000" font-size="12" textLength="122.748" font-family="Arial">e as tentativas de login</text><polygon points="460.308,510.88,450.308,514.88,460.308,518.88,456.308,514.88" fill="#000" style="stroke:#000;stroke-width:1;stroke-linejoin:miter;stroke-miterlimit:10;"/><line x1="454.308" y1="514.88" x2="637.011" y2="514.88" style="stroke:#000;stroke-width:1;stroke-dasharray:2,2;"/><text x="466.308" y="510.549" fill="#000" font-size="11" textLength="15.292" font-family="Arial">11:</text><text x="485.599" y="510.549" fill="#000" font-size="11" textLength="18.955" font-family="Arial">true</text><line x1="449.308" y1="541.529" x2="491.308" y2="541.529" style="stroke:#000;stroke-width:1;"/><line x1="491.308" y1="541.529" x2="491.308" y2="554.529" style="stroke:#000;stroke-width:1;"/><line x1="450.308" y1="554.529" x2="491.308" y2="554.529" style="stroke:#000;stroke-width:1;"/><polygon points="460.308,550.529,450.308,554.529,460.308,558.529,456.308,554.529" fill="#000" style="stroke:#000;stroke-width:1;stroke-linejoin:miter;stroke-miterlimit:10;"/><text x="456.308" y="537.198" fill="#000" font-size="11" textLength="15.292" font-family="Arial">12:</text><text x="475.599" y="537.198" fill="#000" font-size="11" textLength="89.257" font-family="Arial">encerrar_sessao()</text><polygon points="240.442,589.827,230.442,593.827,240.442,597.827,236.442,593.827" fill="#000" style="stroke:#000;stroke-width:1;stroke-linejoin:miter;stroke-miterlimit:10;"/><line x1="234.442" y1="593.827" x2="438.308" y2="593.827" style="stroke:#000;stroke-width:1;stroke-dasharray:2,2;"/><text x="246.442" y="583.171" fill="#000" font-size="11" textLength="15.292" font-family="Arial">13:</text><text x="265.734" y="576.847" fill="#000" font-size="11" textLength="166.574" font-family="Arial">"Sua conta e todos os seus dados</text><text x="265.734" y="589.496" fill="#000" font-size="11" textLength="154.924" font-family="Arial">foram excluídos da plataforma."</text><polygon points="61.354,616.476,51.354,620.476,61.354,624.476,57.354,620.476" fill="#000" style="stroke:#000;stroke-width:1;stroke-linejoin:miter;stroke-miterlimit:10;"/><line x1="55.354" y1="620.476" x2="218.442" y2="620.476" style="stroke:#000;stroke-width:1;stroke-dasharray:2,2;"/><text x="67.354" y="616.145" fill="#000" font-size="11" textLength="15.292" font-family="Arial">14:</text><text x="86.646" y="616.145" fill="#000" font-size="11" textLength="92.941" font-family="Arial">exibir página inicial</text><?plantuml-src TLFDQjj04BxlKqnrieaTSdQXuDYbbvW6wju2PIoDx87LZZAxQzo-JKyzvLJw17wnpaes98M23jBCzpD_UiUXzhaXe9ZOootdphiEERIA7K5iuEF90Ao0qElvTw-CK4j829E7Ju_hgSES9EHkHmhLtQ9o1pQrLYJjvEGSraaKLXWQRZ09O8IbsqaE3Uftg1PRylX8shAlIcxhYhQAjzGONetVddG0h1o5nAbGlyQCoh9UVXuowrVK3Jvd3hZibSpu1pOoG3Pk2VCFi8MR6rW0xjJQggxzTHmEbzQgsPFHzfomj1sf9AYaMjOErMsBocfKeP5UoiJ909rTaJ9rgn6vW2Dw6u1-gwEsaqjyFIgOiOqmtdjvpiJo87iE4-vdGBO7FtLhc0yYyxc1xy1CEkWnHtmhCtXR6IqfJRYPZO5_w4apZQpDfVnefZNfMYxZDEhKRLvpF9z_dVzG1EnnZmt6DxQN_WTQa4IWl3yaaDO02wWnrfXm0VsmJ1jDLZs_rDbBj27Nbxl8Yd467QRwO3xq5316szyGVp_wWbW1QcizIdmALDQPx1GmyT5UxUHycTl_kYqhe61zgkqWKemeunQ6SnZ0rPTylMo298tvsHCfcxeTa9csOl_4sF3vfUGR-oUyjMU93c-hSXUcjnprwCGxEwl-_DFgGk30DQF_2m00?></g></svg>