<svg xmlns="http://www.w3.org/2000/svg" xmlns:xlink="http://www.w3.org/1999/xlink" version="1.1" data-diagram-type="SEQUENCE" style="width:1176px;height:583px;background:#FFFFFF;" width="1176px" height="583px" viewBox="0 0 1176 583" zoomAndPan="magnify" preserveAspectRatio="none" contentStyleType="text/css"><?plantuml 1.2026.8?><defs/><g font-family="sans-serif" lengthAdjust="spacing"><rect x="10" y="15" width="1155.747" height="552.73" fill="#FFF" style="stroke:#181818;stroke-width:1.5;"/><path d="M243.316,15 L243.316,24.099 L233.316,34.099 L10,34.099" style="stroke:#181818;stroke-width:1.5;" fill="none"/><text x="13" y="29.132" fill="#000" font-size="14" textLength="223.316" font-family="Arial">sd Trazer os PDFs para a biblioteca</text><g><title>Administrador</title><rect x="56.514" y="120.897" width="8" height="429.734" fill="#000" fill-opacity="0"/><line x1="60.014" y1="120.897" x2="60.014" y2="550.631" style="stroke:#000;stroke-width:0.5;stroke-dasharray:5,5;"/></g><g><title>.TelaCursos</title><rect x="268.516" y="120.897" width="8" height="429.734" fill="#000" fill-opacity="0"/><line x1="272.016" y1="120.897" x2="272.016" y2="550.631" style="stroke:#000;stroke-width:0.5;stroke-dasharray:5,5;"/></g><g><title></title><rect x="267.016" y="160.195" width="10" height="372.436" fill="#FFF" style="stroke:#181818;stroke-width:1;"/></g><g><title>.AdminController</title><rect x="502.636" y="120.897" width="8" height="429.734" fill="#000" fill-opacity="0"/><line x1="506.136" y1="120.897" x2="506.136" y2="550.631" style="stroke:#000;stroke-width:0.5;stroke-dasharray:5,5;"/></g><g><title></title><rect x="501.136" y="186.844" width="10" height="319.138" fill="#FFF" style="stroke:#181818;stroke-width:1;"/></g><g><title>.CursoDAO</title><rect x="801.613" y="120.897" width="8" height="429.734" fill="#000" fill-opacity="0"/><line x1="805.113" y1="120.897" x2="805.113" y2="550.631" style="stroke:#000;stroke-width:0.5;stroke-dasharray:5,5;"/></g><g><title></title><rect x="800.113" y="213.493" width="10" height="26.649" fill="#FFF" style="stroke:#181818;stroke-width:1;"/></g><g><title></title><rect x="800.113" y="452.685" width="10" height="26.649" fill="#FFF" style="stroke:#181818;stroke-width:1;"/></g><g><title>.ImagemRemota</title><rect x="892.636" y="120.897" width="8" height="429.734" fill="#000" fill-opacity="0"/><line x1="896.136" y1="120.897" x2="896.136" y2="550.631" style="stroke:#000;stroke-width:0.5;stroke-dasharray:5,5;"/></g><g><title></title><rect x="891.136" y="266.791" width="10" height="159.245" fill="#FFF" style="stroke:#181818;stroke-width:1;"/></g><g><title>Site oficial</title><rect x="1111.901" y="120.897" width="8" height="429.734" fill="#000" fill-opacity="0"/><line x1="1115.401" y1="120.897" x2="1115.401" y2="550.631" style="stroke:#000;stroke-width:0.5;stroke-dasharray:5,5;"/></g><g><title></title><rect x="1110.401" y="333.089" width="10" height="26.649" fill="#FFF" style="stroke:#181818;stroke-width:1;"/></g><text x="20" y="118.354" fill="#000" font-size="12" textLength="74.027" font-family="Arial">Administrador</text><ellipse cx="60.014" cy="55.599" rx="8" ry="8" fill="#FFC" style="stroke:#000;stroke-width:0.5;"/><path d="M60.014,63.599 L60.014,90.599 M47.014,71.599 L73.014,71.599 M60.014,90.599 L47.014,105.599 M60.014,90.599 L73.014,105.599" style="stroke:#000;stroke-width:0.5;" fill="none"/><text x="236.672" y="118.354" fill="#000" font-size="12" textLength="64.688" font-family="Arial">:TelaCursos</text><path d="M251.516,79.099 L251.516,103.099 M251.516,91.099 L268.516,91.099" style="stroke:#000;stroke-width:0.5;" fill="none"/><ellipse cx="280.516" cy="91.099" rx="12" ry="12" fill="#FFC" style="stroke:#000;stroke-width:0.5;"/><text x="458.453" y="118.354" fill="#000" font-size="12" textLength="89.367" font-family="Arial">:AdminController</text><ellipse cx="506.136" cy="91.099" rx="12" ry="12" fill="#FFC" style="stroke:#000;stroke-width:0.5;"/><polygon points="502.136,79.099,508.136,74.099,506.136,79.099,508.136,84.099,502.136,79.099" fill="#000" style="stroke:#000;stroke-width:1;stroke-linejoin:miter;stroke-miterlimit:10;"/><text x="771.439" y="118.354" fill="#000" font-size="12" textLength="61.348" font-family="Arial">:CursoDAO</text><ellipse cx="805.113" cy="91.099" rx="12" ry="12" fill="#FFC" style="stroke:#000;stroke-width:0.5;"/><line x1="793.113" y1="105.099" x2="817.113" y2="105.099" style="stroke:#000;stroke-width:0.5;"/><text x="848.787" y="118.354" fill="#000" font-size="12" textLength="88.699" font-family="Arial">:ImagemRemota</text><ellipse cx="896.136" cy="91.099" rx="12" ry="12" fill="#FFC" style="stroke:#000;stroke-width:0.5;"/><polygon points="892.136,79.099,898.136,74.099,896.136,79.099,898.136,84.099,892.136,79.099" fill="#000" style="stroke:#000;stroke-width:1;stroke-linejoin:miter;stroke-miterlimit:10;"/><rect x="1081.056" y="78.3" width="68.691" height="41.598" fill="#FFC" style="stroke:#000;stroke-width:0.5;"/><text x="1088.056" y="96.556" fill="#000" font-size="12" textLength="54.691" font-family="Arial">Site oficial</text><text x="1088.715" y="110.354" fill="#000" font-size="12" textLength="53.373" font-family="Arial">do e-book</text><polygon points="255.016,156.195,265.016,160.195,255.016,164.195,259.016,160.195" fill="#000" style="stroke:#000;stroke-width:1;stroke-linejoin:miter;stroke-miterlimit:10;"/><line x1="60.014" y1="160.195" x2="261.016" y2="160.195" style="stroke:#000;stroke-width:1;"/><text x="67.014" y="149.54" fill="#000" font-size="11" textLength="9.174" font-family="Arial">1:</text><text x="80.188" y="143.215" fill="#000" font-size="11" textLength="127.977" font-family="Arial">clicar em "Trazer os PDFs</text><text x="80.188" y="155.864" fill="#000" font-size="11" textLength="84.627" font-family="Arial">para a biblioteca"</text><polygon points="489.136,182.844,499.136,186.844,489.136,190.844,493.136,186.844" fill="#000" style="stroke:#000;stroke-width:1;stroke-linejoin:miter;stroke-miterlimit:10;"/><line x1="277.016" y1="186.844" x2="495.136" y2="186.844" style="stroke:#000;stroke-width:1;"/><text x="284.016" y="182.513" fill="#000" font-size="11" textLength="9.174" font-family="Arial">2:</text><text x="297.19" y="182.513" fill="#000" font-size="11" textLength="149.499" font-family="Arial">cursos(acao = pdfs_biblioteca)</text><polygon points="788.113,209.493,798.113,213.493,788.113,217.493,792.113,213.493" fill="#000" style="stroke:#000;stroke-width:1;stroke-linejoin:miter;stroke-miterlimit:10;"/><line x1="511.136" y1="213.493" x2="794.113" y2="213.493" style="stroke:#000;stroke-width:1;"/><text x="518.136" y="209.162" fill="#000" font-size="11" textLength="9.174" font-family="Arial">3:</text><text x="531.31" y="209.162" fill="#000" font-size="11" textLength="53.786" font-family="Arial">listar(false)</text><polygon points="522.136,236.142,512.136,240.142,522.136,244.142,518.136,240.142" fill="#000" style="stroke:#000;stroke-width:1;stroke-linejoin:miter;stroke-miterlimit:10;"/><line x1="516.136" y1="240.142" x2="799.113" y2="240.142" style="stroke:#000;stroke-width:1;stroke-dasharray:2,2;"/><text x="528.136" y="235.811" fill="#000" font-size="11" textLength="9.174" font-family="Arial">4:</text><text x="541.31" y="235.811" fill="#000" font-size="11" textLength="121.059" font-family="Arial">e-books com link da web</text><polygon points="879.136,262.791,889.136,266.791,879.136,270.791,883.136,266.791" fill="#000" style="stroke:#000;stroke-width:1;stroke-linejoin:miter;stroke-miterlimit:10;"/><line x1="511.136" y1="266.791" x2="885.136" y2="266.791" style="stroke:#000;stroke-width:1;"/><text x="518.136" y="262.46" fill="#000" font-size="11" textLength="9.174" font-family="Arial">5:</text><text x="531.31" y="262.46" fill="#000" font-size="11" textLength="50.123" font-family="Arial">pdfs(links)</text><line x1="901.136" y1="293.44" x2="943.136" y2="293.44" style="stroke:#000;stroke-width:1;"/><line x1="943.136" y1="293.44" x2="943.136" y2="306.44" style="stroke:#000;stroke-width:1;"/><line x1="902.136" y1="306.44" x2="943.136" y2="306.44" style="stroke:#000;stroke-width:1;"/><polygon points="912.136,302.44,902.136,306.44,912.136,310.44,908.136,306.44" fill="#000" style="stroke:#000;stroke-width:1;stroke-linejoin:miter;stroke-miterlimit:10;"/><text x="908.136" y="289.109" fill="#000" font-size="11" textLength="9.174" font-family="Arial">6:</text><text x="921.31" y="289.109" fill="#000" font-size="11" textLength="76.415" font-family="Arial">linkPublico(link)</text><polygon points="1098.401,329.089,1108.401,333.089,1098.401,337.089,1102.401,333.089" fill="#000" style="stroke:#000;stroke-width:1;stroke-linejoin:miter;stroke-miterlimit:10;"/><line x1="901.136" y1="333.089" x2="1104.401" y2="333.089" style="stroke:#000;stroke-width:1;"/><text x="908.136" y="328.758" fill="#000" font-size="11" textLength="9.174" font-family="Arial">7:</text><text x="921.31" y="328.758" fill="#000" font-size="11" textLength="138.768" font-family="Arial">baixar (HTTPS, até 150 MB)</text><polygon points="912.136,355.738,902.136,359.738,912.136,363.738,908.136,359.738" fill="#000" style="stroke:#000;stroke-width:1;stroke-linejoin:miter;stroke-miterlimit:10;"/><line x1="906.136" y1="359.738" x2="1109.401" y2="359.738" style="stroke:#000;stroke-width:1;stroke-dasharray:2,2;"/><text x="918.136" y="355.407" fill="#000" font-size="11" textLength="9.174" font-family="Arial">8:</text><text x="931.31" y="355.407" fill="#000" font-size="11" textLength="125.361" font-family="Arial">PDF ou página do e-book</text><line x1="901.136" y1="386.387" x2="943.136" y2="386.387" style="stroke:#000;stroke-width:1;"/><line x1="943.136" y1="386.387" x2="943.136" y2="399.387" style="stroke:#000;stroke-width:1;"/><line x1="902.136" y1="399.387" x2="943.136" y2="399.387" style="stroke:#000;stroke-width:1;"/><polygon points="912.136,395.387,902.136,399.387,912.136,403.387,908.136,399.387" fill="#000" style="stroke:#000;stroke-width:1;stroke-linejoin:miter;stroke-miterlimit:10;"/><text x="908.136" y="382.056" fill="#000" font-size="11" textLength="9.174" font-family="Arial">9:</text><text x="921.31" y="382.056" fill="#000" font-size="11" textLength="187.091" font-family="Arial">pdfDaPagina() / ehPdf() / guardarPdf()</text><polygon points="522.136,422.036,512.136,426.036,522.136,430.036,518.136,426.036" fill="#000" style="stroke:#000;stroke-width:1;stroke-linejoin:miter;stroke-miterlimit:10;"/><line x1="516.136" y1="426.036" x2="890.136" y2="426.036" style="stroke:#000;stroke-width:1;stroke-dasharray:2,2;"/><text x="528.136" y="421.705" fill="#000" font-size="11" textLength="15.292" font-family="Arial">10:</text><text x="547.428" y="421.705" fill="#000" font-size="11" textLength="108.84" font-family="Arial">link → biblioteca_*.pdf</text><polygon points="788.113,448.685,798.113,452.685,788.113,456.685,792.113,452.685" fill="#000" style="stroke:#000;stroke-width:1;stroke-linejoin:miter;stroke-miterlimit:10;"/><line x1="511.136" y1="452.685" x2="794.113" y2="452.685" style="stroke:#000;stroke-width:1;"/><text x="518.136" y="448.354" fill="#000" font-size="11" textLength="15.292" font-family="Arial">11:</text><text x="537.428" y="448.354" fill="#000" font-size="11" textLength="250.685" font-family="Arial">guardarNaBiblioteca(id, pdf, descrição com a fonte)</text><polygon points="522.136,475.333,512.136,479.333,522.136,483.333,518.136,479.333" fill="#000" style="stroke:#000;stroke-width:1;stroke-linejoin:miter;stroke-miterlimit:10;"/><line x1="516.136" y1="479.333" x2="799.113" y2="479.333" style="stroke:#000;stroke-width:1;stroke-dasharray:2,2;"/><text x="528.136" y="475.002" fill="#000" font-size="11" textLength="15.292" font-family="Arial">12:</text><text x="547.428" y="475.002" fill="#000" font-size="11" textLength="18.955" font-family="Arial">true</text><polygon points="288.016,501.982,278.016,505.982,288.016,509.982,284.016,505.982" fill="#000" style="stroke:#000;stroke-width:1;stroke-linejoin:miter;stroke-miterlimit:10;"/><line x1="282.016" y1="505.982" x2="500.136" y2="505.982" style="stroke:#000;stroke-width:1;stroke-dasharray:2,2;"/><text x="294.016" y="501.651" fill="#000" font-size="11" textLength="15.292" font-family="Arial">13:</text><text x="313.308" y="501.651" fill="#000" font-size="11" textLength="180.829" font-family="Arial">"N PDF(s) guardado(s) na biblioteca"</text><polygon points="71.014,528.631,61.014,532.631,71.014,536.631,67.014,532.631" fill="#000" style="stroke:#000;stroke-width:1;stroke-linejoin:miter;stroke-miterlimit:10;"/><line x1="65.014" y1="532.631" x2="266.016" y2="532.631" style="stroke:#000;stroke-width:1;stroke-dasharray:2,2;"/><text x="77.014" y="528.3" fill="#000" font-size="11" textLength="15.292" font-family="Arial">14:</text><text x="96.305" y="528.3" fill="#000" font-size="11" textLength="163.711" font-family="Arial">exibir mensagem (botão "Baixar")</text><?plantuml-src PL91Rjim4Bpp5LkTfCPEqqCl1bh0bX2aXwQ68y2N0C6Af1mY9DSWATJj0_g0_g3eeUWx_9E-f2Gbn4bput9cThYpVAKiruEG87rGcixLO3Gpg6plq4Zm0bg7twG3yh1kBZtiqI4WTAhJYeBao708P0VJHL9niIZOlOhjUgBGqO4nv84SB8LHLldWKCGAFInPHuCLwBv2iMYbndfmddoHi9Pnii6HZb0MrcEffSjupQGDAYHbLZNBp_c-UQBxQ70dpKOQ2fZ13Oil3ughFTe0nOqA4gYFDUfRAmZal2DwoDGjMyBy0xHmTWOBu5fnT20D5C-ZkBKliYXOcvJrfCmZbSYHu3tiHU_lJjIArOdQZ5GTiq5NzgYzh5W3yznbFe_G-30Fd4oasGSG25zaDyetepprBXFeAxOPxnUPl1wY7wUCJT1sb7Ie3d6iygfjrpSpm73y0s_VNS2dLSMssNyp-iTHWGRO7t_kb4LuZEfa5DqRN6E2omhUWBnVYpwVTWEwkEDS9lvfgZp9t-y_deHtz_eyTdeMowI_njKZgrHYbXnd8AJdJXr_7tzH3WVZfxFX__Y26sJgcHUQRuhhD5Ffgwcze7IsB_OO5Sjf1GVLAGT6Mfz-5PGTXUHQh7A8HVKF?></g></svg>