<svg xmlns="http://www.w3.org/2000/svg" xmlns:xlink="http://www.w3.org/1999/xlink" version="1.1" data-diagram-type="SEQUENCE" style="width:1194px;height:584px;background:#FFFFFF;" width="1194px" height="584px" viewBox="0 0 1194 584" zoomAndPan="magnify" preserveAspectRatio="none" contentStyleType="text/css"><?plantuml 1.2026.8?><defs/><g font-family="sans-serif" lengthAdjust="spacing"><rect x="10" y="15" width="1173.142" height="553.73" fill="#FFF" style="stroke:#181818;stroke-width:1.5;"/><path d="M187.303,15 L187.303,24.099 L177.303,34.099 L10,34.099" style="stroke:#181818;stroke-width:1.5;" fill="none"/><text x="13" y="29.132" fill="#000" font-size="14" textLength="167.303" font-family="Arial">sd Aprender com a revisão</text><g><title>Empresa</title><rect x="43.509" y="120.897" width="8" height="430.734" fill="#000" fill-opacity="0"/><line x1="47.009" y1="120.897" x2="47.009" y2="551.631" style="stroke:#000;stroke-width:0.5;stroke-dasharray:5,5;"/></g><g><title>.TelaVagas</title><rect x="195.742" y="120.897" width="8" height="430.734" fill="#000" fill-opacity="0"/><line x1="199.242" y1="120.897" x2="199.242" y2="551.631" style="stroke:#000;stroke-width:0.5;stroke-dasharray:5,5;"/></g><g><title></title><rect x="194.242" y="147.546" width="10" height="386.085" fill="#FFF" style="stroke:#181818;stroke-width:1;"/></g><g><title>.EmpresaController</title><rect x="427.166" y="120.897" width="8" height="430.734" fill="#000" fill-opacity="0"/><line x1="430.666" y1="120.897" x2="430.666" y2="551.631" style="stroke:#000;stroke-width:0.5;stroke-dasharray:5,5;"/></g><g><title></title><rect x="425.666" y="174.195" width="10" height="332.787" fill="#FFF" style="stroke:#181818;stroke-width:1;"/></g><g><title>.MaquinaAprendizado</title><rect x="702.3" y="120.897" width="8" height="430.734" fill="#000" fill-opacity="0"/><line x1="705.8" y1="120.897" x2="705.8" y2="551.631" style="stroke:#000;stroke-width:0.5;stroke-dasharray:5,5;"/></g><g><title></title><rect x="700.8" y="200.844" width="10" height="279.489" fill="#FFF" style="stroke:#181818;stroke-width:1;"/></g><g><title>.CorrecaoHumana</title><rect x="920.533" y="120.897" width="8" height="430.734" fill="#000" fill-opacity="0"/><line x1="924.033" y1="120.897" x2="924.033" y2="551.631" style="stroke:#000;stroke-width:0.5;stroke-dasharray:5,5;"/></g><g><title></title><rect x="919.033" y="227.493" width="10" height="26.649" fill="#FFF" style="stroke:#181818;stroke-width:1;"/></g><g><title>.NaiveBayes</title><rect x="1019.238" y="120.897" width="8" height="430.734" fill="#000" fill-opacity="0"/><line x1="1022.738" y1="120.897" x2="1022.738" y2="551.631" style="stroke:#000;stroke-width:0.5;stroke-dasharray:5,5;"/></g><g><title></title><rect x="1017.738" y="334.089" width="10" height="26.649" fill="#FFF" style="stroke:#181818;stroke-width:1;"/></g><g><title>.AprendizadoDAO</title><rect x="1117.281" y="120.897" width="8" height="430.734" fill="#000" fill-opacity="0"/><line x1="1120.781" y1="120.897" x2="1120.781" y2="551.631" style="stroke:#000;stroke-width:0.5;stroke-dasharray:5,5;"/></g><g><title></title><rect x="1115.781" y="280.791" width="10" height="26.649" fill="#FFF" style="stroke:#181818;stroke-width:1;"/></g><g><title></title><rect x="1115.781" y="387.387" width="10" height="26.649" fill="#FFF" style="stroke:#181818;stroke-width:1;"/></g><text x="20" y="118.354" fill="#000" font-size="12" textLength="48.018" font-family="Arial">Empresa</text><ellipse cx="47.009" cy="55.599" rx="8" ry="8" fill="#FFC" style="stroke:#000;stroke-width:0.5;"/><path d="M47.009,63.599 L47.009,90.599 M34.009,71.599 L60.009,71.599 M47.009,90.599 L34.009,105.599 M47.009,90.599 L60.009,105.599" style="stroke:#000;stroke-width:0.5;" fill="none"/><text x="165.89" y="118.354" fill="#000" font-size="12" textLength="60.703" font-family="Arial">:TelaVagas</text><path d="M178.742,79.099 L178.742,103.099 M178.742,91.099 L195.742,91.099" style="stroke:#000;stroke-width:0.5;" fill="none"/><ellipse cx="207.742" cy="91.099" rx="12" ry="12" fill="#FFC" style="stroke:#000;stroke-width:0.5;"/><text x="375.98" y="118.354" fill="#000" font-size="12" textLength="103.371" font-family="Arial">:EmpresaController</text><ellipse cx="430.666" cy="91.099" rx="12" ry="12" fill="#FFC" style="stroke:#000;stroke-width:0.5;"/><polygon points="426.666,79.099,432.666,74.099,430.666,79.099,432.666,84.099,426.666,79.099" fill="#000" style="stroke:#000;stroke-width:1;stroke-linejoin:miter;stroke-miterlimit:10;"/><text x="644.426" y="118.354" fill="#000" font-size="12" textLength="116.748" font-family="Arial">:MaquinaAprendizado</text><ellipse cx="705.8" cy="91.099" rx="12" ry="12" fill="#FFC" style="stroke:#000;stroke-width:0.5;"/><polygon points="701.8,79.099,707.8,74.099,705.8,79.099,707.8,84.099,701.8,79.099" fill="#000" style="stroke:#000;stroke-width:1;stroke-linejoin:miter;stroke-miterlimit:10;"/><text x="872.011" y="118.354" fill="#000" font-size="12" textLength="98.045" font-family="Arial">:CorrecaoHumana</text><ellipse cx="924.033" cy="91.099" rx="12" ry="12" fill="#FFC" style="stroke:#000;stroke-width:0.5;"/><polygon points="920.033,79.099,926.033,74.099,924.033,79.099,926.033,84.099,920.033,79.099" fill="#000" style="stroke:#000;stroke-width:1;stroke-linejoin:miter;stroke-miterlimit:10;"/><text x="986.056" y="118.354" fill="#000" font-size="12" textLength="67.365" font-family="Arial">:NaiveBayes</text><ellipse cx="1022.738" cy="91.099" rx="12" ry="12" fill="#FFC" style="stroke:#000;stroke-width:0.5;"/><polygon points="1018.738,79.099,1024.738,74.099,1022.738,79.099,1024.738,84.099,1018.738,79.099" fill="#000" style="stroke:#000;stroke-width:1;stroke-linejoin:miter;stroke-miterlimit:10;"/><text x="1069.421" y="118.354" fill="#000" font-size="12" textLength="96.721" font-family="Arial">:AprendizadoDAO</text><ellipse cx="1120.781" cy="91.099" rx="12" ry="12" fill="#FFC" style="stroke:#000;stroke-width:0.5;"/><line x1="1108.781" y1="105.099" x2="1132.781" y2="105.099" style="stroke:#000;stroke-width:0.5;"/><polygon points="182.242,143.546,192.242,147.546,182.242,151.546,186.242,147.546" fill="#000" style="stroke:#000;stroke-width:1;stroke-linejoin:miter;stroke-miterlimit:10;"/><line x1="47.009" y1="147.546" x2="188.242" y2="147.546" style="stroke:#000;stroke-width:1;"/><text x="54.009" y="143.215" fill="#000" font-size="11" textLength="9.174" font-family="Arial">1:</text><text x="67.183" y="143.215" fill="#000" font-size="11" textLength="110.059" font-family="Arial">salvar a vaga revisada</text><polygon points="413.666,170.195,423.666,174.195,413.666,178.195,417.666,174.195" fill="#000" style="stroke:#000;stroke-width:1;stroke-linejoin:miter;stroke-miterlimit:10;"/><line x1="204.242" y1="174.195" x2="419.666" y2="174.195" style="stroke:#000;stroke-width:1;"/><text x="211.242" y="169.864" fill="#000" font-size="11" textLength="9.174" font-family="Arial">2:</text><text x="224.416" y="169.864" fill="#000" font-size="11" textLength="189.25" font-family="Arial">vagas(acao = salvar, dados, sugestão)</text><polygon points="688.8,196.844,698.8,200.844,688.8,204.844,692.8,200.844" fill="#000" style="stroke:#000;stroke-width:1;stroke-linejoin:miter;stroke-miterlimit:10;"/><line x1="435.666" y1="200.844" x2="694.8" y2="200.844" style="stroke:#000;stroke-width:1;"/><text x="442.666" y="196.513" fill="#000" font-size="11" textLength="9.174" font-family="Arial">3:</text><text x="455.84" y="196.513" fill="#000" font-size="11" textLength="232.96" font-family="Arial">aprenderDaRevisao(sugestão, salvo, usuarioId)</text><polygon points="907.033,223.493,917.033,227.493,907.033,231.493,911.033,227.493" fill="#000" style="stroke:#000;stroke-width:1;stroke-linejoin:miter;stroke-miterlimit:10;"/><line x1="710.8" y1="227.493" x2="913.033" y2="227.493" style="stroke:#000;stroke-width:1;"/><text x="717.8" y="223.162" fill="#000" font-size="11" textLength="9.174" font-family="Arial">4:</text><text x="730.974" y="223.162" fill="#000" font-size="11" textLength="176.059" font-family="Arial">licoesDeLinhas() / conferirCampos()</text><polygon points="721.8,250.142,711.8,254.142,721.8,258.142,717.8,254.142" fill="#000" style="stroke:#000;stroke-width:1;stroke-linejoin:miter;stroke-miterlimit:10;"/><line x1="715.8" y1="254.142" x2="918.033" y2="254.142" style="stroke:#000;stroke-width:1;stroke-dasharray:2,2;"/><text x="727.8" y="249.811" fill="#000" font-size="11" textLength="9.174" font-family="Arial">5:</text><text x="740.974" y="249.811" fill="#000" font-size="11" textLength="76.425" font-family="Arial">lições e acertos</text><polygon points="1103.781,276.791,1113.781,280.791,1103.781,284.791,1107.781,280.791" fill="#000" style="stroke:#000;stroke-width:1;stroke-linejoin:miter;stroke-miterlimit:10;"/><line x1="710.8" y1="280.791" x2="1109.781" y2="280.791" style="stroke:#000;stroke-width:1;"/><text x="717.8" y="276.46" fill="#000" font-size="11" textLength="9.174" font-family="Arial">6:</text><text x="730.974" y="276.46" fill="#000" font-size="11" textLength="155.284" font-family="Arial">registrarProva(modelo, acertou)</text><polygon points="721.8,303.44,711.8,307.44,721.8,311.44,717.8,307.44" fill="#000" style="stroke:#000;stroke-width:1;stroke-linejoin:miter;stroke-miterlimit:10;"/><line x1="715.8" y1="307.44" x2="1114.781" y2="307.44" style="stroke:#000;stroke-width:1;stroke-dasharray:2,2;"/><text x="727.8" y="303.109" fill="#000" font-size="11" textLength="9.174" font-family="Arial">7:</text><text x="740.974" y="303.109" fill="#000" font-size="11" font-family="Arial"> </text><polygon points="1005.738,330.089,1015.738,334.089,1005.738,338.089,1009.738,334.089" fill="#000" style="stroke:#000;stroke-width:1;stroke-linejoin:miter;stroke-miterlimit:10;"/><line x1="710.8" y1="334.089" x2="1011.738" y2="334.089" style="stroke:#000;stroke-width:1;"/><text x="717.8" y="329.758" fill="#000" font-size="11" textLength="9.174" font-family="Arial">8:</text><text x="730.974" y="329.758" fill="#000" font-size="11" textLength="130.228" font-family="Arial">aprender(palavras, classe)</text><polygon points="721.8,356.738,711.8,360.738,721.8,364.738,717.8,360.738" fill="#000" style="stroke:#000;stroke-width:1;stroke-linejoin:miter;stroke-miterlimit:10;"/><line x1="715.8" y1="360.738" x2="1016.738" y2="360.738" style="stroke:#000;stroke-width:1;stroke-dasharray:2,2;"/><text x="727.8" y="356.407" fill="#000" font-size="11" textLength="9.174" font-family="Arial">9:</text><text x="740.974" y="356.407" fill="#000" font-size="11" font-family="Arial"> </text><polygon points="1103.781,383.387,1113.781,387.387,1103.781,391.387,1107.781,387.387" fill="#000" style="stroke:#000;stroke-width:1;stroke-linejoin:miter;stroke-miterlimit:10;"/><line x1="710.8" y1="387.387" x2="1109.781" y2="387.387" style="stroke:#000;stroke-width:1;"/><text x="717.8" y="383.056" fill="#000" font-size="11" textLength="15.292" font-family="Arial">10:</text><text x="737.092" y="383.056" fill="#000" font-size="11" textLength="187.043" font-family="Arial">registrarExemplo() / registrarRevisao()</text><polygon points="721.8,410.036,711.8,414.036,721.8,418.036,717.8,414.036" fill="#000" style="stroke:#000;stroke-width:1;stroke-linejoin:miter;stroke-miterlimit:10;"/><line x1="715.8" y1="414.036" x2="1114.781" y2="414.036" style="stroke:#000;stroke-width:1;stroke-dasharray:2,2;"/><text x="727.8" y="409.705" fill="#000" font-size="11" textLength="15.292" font-family="Arial">11:</text><text x="747.092" y="409.705" fill="#000" font-size="11" font-family="Arial"> </text><line x1="710.8" y1="440.685" x2="752.8" y2="440.685" style="stroke:#000;stroke-width:1;"/><line x1="752.8" y1="440.685" x2="752.8" y2="453.685" style="stroke:#000;stroke-width:1;"/><line x1="711.8" y1="453.685" x2="752.8" y2="453.685" style="stroke:#000;stroke-width:1;"/><polygon points="721.8,449.685,711.8,453.685,721.8,457.685,717.8,453.685" fill="#000" style="stroke:#000;stroke-width:1;stroke-linejoin:miter;stroke-miterlimit:10;"/><text x="717.8" y="436.354" fill="#000" font-size="11" textLength="15.292" font-family="Arial">12:</text><text x="737.092" y="436.354" fill="#000" font-size="11" textLength="147.947" font-family="Arial">calibrarSeNecessario(modelo)</text><polygon points="446.666,476.333,436.666,480.333,446.666,484.333,442.666,480.333" fill="#000" style="stroke:#000;stroke-width:1;stroke-linejoin:miter;stroke-miterlimit:10;"/><line x1="440.666" y1="480.333" x2="699.8" y2="480.333" style="stroke:#000;stroke-width:1;stroke-dasharray:2,2;"/><text x="452.666" y="476.002" fill="#000" font-size="11" textLength="15.292" font-family="Arial">13:</text><text x="471.958" y="476.002" fill="#000" font-size="11" textLength="122.923" font-family="Arial">resumo do que aprendeu</text><polygon points="215.242,502.982,205.242,506.982,215.242,510.982,211.242,506.982" fill="#000" style="stroke:#000;stroke-width:1;stroke-linejoin:miter;stroke-miterlimit:10;"/><line x1="209.242" y1="506.982" x2="424.666" y2="506.982" style="stroke:#000;stroke-width:1;stroke-dasharray:2,2;"/><text x="221.242" y="502.651" fill="#000" font-size="11" textLength="15.292" font-family="Arial">14:</text><text x="240.533" y="502.651" fill="#000" font-size="11" textLength="83.649" font-family="Arial">"Vaga publicada"</text><polygon points="58.009,529.631,48.009,533.631,58.009,537.631,54.009,533.631" fill="#000" style="stroke:#000;stroke-width:1;stroke-linejoin:miter;stroke-miterlimit:10;"/><line x1="52.009" y1="533.631" x2="193.242" y2="533.631" style="stroke:#000;stroke-width:1;stroke-dasharray:2,2;"/><text x="64.009" y="529.3" fill="#000" font-size="11" textLength="15.292" font-family="Arial">15:</text><text x="83.3" y="529.3" fill="#000" font-size="11" textLength="83.757" font-family="Arial">exibir mensagem</text><?plantuml-src PLBDZjCm4BxxAOQSMcqBd2k1j2IHYaGAWehx99bsBTcUh1r7NLw70q_04_J5cDZTghkSBFdx6t_ZDzfr9lO454Pj-AsErYYBsXqyMeBGm_tWoVNaeMCB29uc7Sw_MM4SsKNR2bAytnJgGOlBWNbi-QGKTYDxgAs80m86g5NBqVNedw3OxCdWJpnYA6PehpfsesSZo4LHvWj3FZ7A6qQ3Zr4xp6FfNzXpeZGtb9Azfmvv6oqwJF3s1jwXdkWJFb6EtoboenxdkMvCg_kl2QrK3UkFi8UxEzX0G3EXbneccJvtWJsg_KmfCsL6mW8b7ZvS-2lenJ6i8CIZz2pjBLKvIveimKl55NvFZhou4bV9GeuO8dhDd_kbQcRfDakDxfX2HL-qUv3O9RoJFRa3UUrBj0FBbTh2EcMjrqbm_dF-Im48i2C_SiX-LVRpTDHXzEY_UPvmORad8-cP6fUgkdfbsUxb2nO36fmyobixWo7GKkrUALu7rIUoW-4q-lNokOV_0nlHTcXqAwmVjAEEGfYBkOoQsadBIA-LlnGjGy_m6EbvoZYNdtQQECNy4s68hNGfoopcRGfQPvHEkjKUBBc0HxB_0000?></g></svg>