<svg xmlns="http://www.w3.org/2000/svg" xmlns:xlink="http://www.w3.org/1999/xlink" version="1.1" data-diagram-type="DESCRIPTION" style="width:810px;height:1670px;background:#FFFFFF;" width="810px" height="1670px" viewBox="0 0 810 1670" zoomAndPan="magnify" preserveAspectRatio="none" contentStyleType="text/css"><?plantuml 1.2026.8?><defs/><g font-family="sans-serif" lengthAdjust="spacing"><rect x="5" y="10" width="794.787" height="1644.197" fill="#FFF" style="stroke:#181818;stroke-width:1.5;"/><path d="M152.73,10 L152.73,19.099 L142.73,29.099 L5,29.099" style="stroke:#181818;stroke-width:1.5;" fill="none"/><text x="8" y="24.132" fill="#000" font-size="14" textLength="137.73" font-family="Arial">uc Caso de Uso Geral</text><!--cluster Sistema Conecta Vagas DF--><g class="cluster" data-qualified-name="Sistema Conecta Vagas DF" id="ent0009" data-source-line="12"><rect x="401.81" y="61.099" width="262.95" height="1577" fill="#FFF" style="stroke:#000;stroke-width:1;"/><text x="455.924" y="74.354" fill="#000" font-size="12" textLength="154.723" font-weight="700" font-family="Arial">Sistema Conecta Vagas DF</text></g><!--entity UC01--><g class="entity" data-qualified-name="Sistema Conecta Vagas DF.UC01" id="ent0010" data-source-line="13"><ellipse cx="533.279" cy="578.096" rx="66.539" ry="15.708" fill="#FFC" style="stroke:#000;stroke-width:0.5;"/><text x="479.92" y="581.496" fill="#000" font-size="12" textLength="106.717" font-family="Arial">UC01 Realizar login</text></g><!--entity UC06--><g class="entity" data-qualified-name="Sistema Conecta Vagas DF.UC06" id="ent0011" data-source-line="14"><ellipse cx="533.275" cy="115.102" rx="96.015" ry="21.603" fill="#FFC" style="stroke:#000;stroke-width:0.5;"/><text x="446.894" y="118.501" fill="#000" font-size="12" textLength="172.764" font-family="Arial">UC06 Manter perfil do candidato</text></g><!--entity UC07--><g class="entity" data-qualified-name="Sistema Conecta Vagas DF.UC07" id="ent0012" data-source-line="15"><ellipse cx="533.278" cy="193.094" rx="96.928" ry="21.786" fill="#FFC" style="stroke:#000;stroke-width:0.5;"/><text x="445.914" y="196.494" fill="#000" font-size="12" textLength="174.727" font-family="Arial">UC07 Enviar currículo (extração)</text></g><!--entity UC08--><g class="entity" data-qualified-name="Sistema Conecta Vagas DF.UC08" id="ent0013" data-source-line="16"><ellipse cx="533.278" cy="272.096" rx="98.488" ry="22.098" fill="#FFC" style="stroke:#000;stroke-width:0.5;"/><text x="444.239" y="275.496" fill="#000" font-size="12" textLength="178.078" font-family="Arial">UC08 Visualizar portfólio e match</text></g><!--entity UC09--><g class="entity" data-qualified-name="Sistema Conecta Vagas DF.UC09" id="ent0014" data-source-line="17"><ellipse cx="533.278" cy="347.094" rx="79.878" ry="18.376" fill="#FFC" style="stroke:#000;stroke-width:0.5;"/><text x="464.574" y="350.494" fill="#000" font-size="12" textLength="137.408" font-family="Arial">UC09 Manter candidatura</text></g><!--entity UC19--><g class="entity" data-qualified-name="Sistema Conecta Vagas DF.UC19" id="ent0015" data-source-line="18"><ellipse cx="533.279" cy="424.1" rx="107.559" ry="23.912" fill="#FFC" style="stroke:#000;stroke-width:0.5;"/><text x="434.575" y="427.5" fill="#000" font-size="12" textLength="197.408" font-family="Arial">UC19 Excluir a própria conta (LGPD)</text></g><!--entity UC14--><g class="entity" data-qualified-name="Sistema Conecta Vagas DF.UC14" id="ent0016" data-source-line="19"><ellipse cx="533.278" cy="505.102" rx="97.868" ry="21.974" fill="#FFC" style="stroke:#000;stroke-width:0.5;"/><text x="444.904" y="508.502" fill="#000" font-size="12" textLength="176.748" font-family="Arial">UC14 Manter assinatura (planos)</text></g><!--entity UC02--><g class="entity" data-qualified-name="Sistema Conecta Vagas DF.UC02" id="ent0017" data-source-line="20"><ellipse cx="533.276" cy="863.098" rx="71.946" ry="16.789" fill="#FFC" style="stroke:#000;stroke-width:0.5;"/><text x="473.581" y="866.497" fill="#000" font-size="12" textLength="119.391" font-family="Arial">UC02 Cadastrar conta</text></g><!--entity UC03--><g class="entity" data-qualified-name="Sistema Conecta Vagas DF.UC03" id="ent0018" data-source-line="21"><ellipse cx="533.277" cy="646.1" rx="74.857" ry="17.371" fill="#FFC" style="stroke:#000;stroke-width:0.5;"/><text x="470.242" y="649.5" fill="#000" font-size="12" textLength="126.07" font-family="Arial">UC03 Recuperar senha</text></g><!--entity UC04--><g class="entity" data-qualified-name="Sistema Conecta Vagas DF.UC04" id="ent0019" data-source-line="22"><ellipse cx="533.275" cy="715.094" rx="72.525" ry="16.905" fill="#FFC" style="stroke:#000;stroke-width:0.5;"/><text x="472.912" y="718.493" fill="#000" font-size="12" textLength="120.727" font-family="Arial">UC04 Consultar vagas</text></g><!--entity UC05--><g class="entity" data-qualified-name="Sistema Conecta Vagas DF.UC05" id="ent0020" data-source-line="23"><ellipse cx="533.283" cy="789.103" rx="99.423" ry="22.285" fill="#FFC" style="stroke:#000;stroke-width:0.5;"/><text x="443.242" y="792.503" fill="#000" font-size="12" textLength="180.082" font-family="Arial">UC05 Consultar cursos e e-books</text></g><!--entity UC10--><g class="entity" data-qualified-name="Sistema Conecta Vagas DF.UC10" id="ent0021" data-source-line="24"><ellipse cx="533.284" cy="936.095" rx="93.534" ry="21.107" fill="#FFC" style="stroke:#000;stroke-width:0.5;"/><text x="449.58" y="939.495" fill="#000" font-size="12" textLength="167.408" font-family="Arial">UC10 Manter perfil da empresa</text></g><!--entity UC13--><g class="entity" data-qualified-name="Sistema Conecta Vagas DF.UC13" id="ent0022" data-source-line="25"><ellipse cx="533.275" cy="1170.098" rx="100.995" ry="22.599" fill="#FFC" style="stroke:#000;stroke-width:0.5;"/><text x="441.553" y="1173.497" fill="#000" font-size="12" textLength="183.445" font-family="Arial">UC13 Consultar banco de talentos</text></g><!--entity UC11--><g class="entity" data-qualified-name="Sistema Conecta Vagas DF.UC11" id="ent0023" data-source-line="26"><ellipse cx="533.281" cy="1243.097" rx="64.041" ry="15.208" fill="#FFC" style="stroke:#000;stroke-width:0.5;"/><text x="482.923" y="1246.496" fill="#000" font-size="12" textLength="100.717" font-family="Arial">UC11 Manter vaga</text></g><!--entity UC12--><g class="entity" data-qualified-name="Sistema Conecta Vagas DF.UC12" id="ent0024" data-source-line="27"><ellipse cx="533.277" cy="1018.094" rx="115.477" ry="25.495" fill="#FFC" style="stroke:#000;stroke-width:0.5;"/><text x="426.221" y="1021.494" fill="#000" font-size="12" textLength="214.113" font-family="Arial">UC12 Gerenciar candidaturas recebidas</text></g><!--entity UC18--><g class="entity" data-qualified-name="Sistema Conecta Vagas DF.UC18" id="ent0025" data-source-line="28"><ellipse cx="533.276" cy="1095.102" rx="72.816" ry="16.963" fill="#FFC" style="stroke:#000;stroke-width:0.5;"/><text x="472.578" y="1098.501" fill="#000" font-size="12" textLength="121.395" font-family="Arial">UC18 Visualizar painel</text></g><!--entity UC15--><g class="entity" data-qualified-name="Sistema Conecta Vagas DF.UC15" id="ent0026" data-source-line="29"><ellipse cx="533.279" cy="1463.098" rx="69.649" ry="16.33" fill="#FFC" style="stroke:#000;stroke-width:0.5;"/><text x="476.252" y="1466.498" fill="#000" font-size="12" textLength="114.053" font-family="Arial">UC15 Manter usuário</text></g><!--entity UC16--><g class="entity" data-qualified-name="Sistema Conecta Vagas DF.UC16" id="ent0027" data-source-line="30"><ellipse cx="533.277" cy="1532.094" rx="73.977" ry="17.195" fill="#FFC" style="stroke:#000;stroke-width:0.5;"/><text x="471.247" y="1535.494" fill="#000" font-size="12" textLength="124.061" font-family="Arial">UC16 Manter categoria</text></g><!--entity UC17--><g class="entity" data-qualified-name="Sistema Conecta Vagas DF.UC17" id="ent0028" data-source-line="31"><ellipse cx="533.277" cy="1603.102" rx="82.867" ry="18.973" fill="#FFC" style="stroke:#000;stroke-width:0.5;"/><text x="461.244" y="1606.501" fill="#000" font-size="12" textLength="144.064" font-family="Arial">UC17 Manter curso/e-book</text></g><!--entity UC20--><g class="entity" data-qualified-name="Sistema Conecta Vagas DF.UC20" id="ent0029" data-source-line="32"><ellipse cx="533.28" cy="1313.097" rx="86.19" ry="19.638" fill="#FFC" style="stroke:#000;stroke-width:0.5;"/><text x="457.58" y="1316.496" fill="#000" font-size="12" textLength="151.4" font-family="Arial">UC20 Gerenciar assinaturas</text></g><!--entity UC21--><g class="entity" data-qualified-name="Sistema Conecta Vagas DF.UC21" id="ent0030" data-source-line="33"><ellipse cx="533.282" cy="1390.097" rx="98.792" ry="22.158" fill="#FFC" style="stroke:#000;stroke-width:0.5;"/><text x="452.569" y="1390.078" fill="#000" font-size="12" textLength="161.426" font-family="Arial">UC21 Acompanhar a máquina</text><text x="491.914" y="1403.877" fill="#000" font-size="12" textLength="82.734" font-family="Arial">de aprendizado</text></g><!--entity U--><g class="entity" data-qualified-name="U" id="ent0001" data-source-line="4"><ellipse cx="45.021" cy="419.799" rx="8" ry="8" fill="#FFC" style="stroke:#000;stroke-width:0.5;"/><path d="M45.021,427.799 L45.021,454.799 M32.021,435.799 L58.021,435.799 M45.021,454.799 L32.021,469.799 M45.021,454.799 L58.021,469.799" style="stroke:#000;stroke-width:0.5;" fill="none"/><text x="10" y="482.554" fill="#000" font-size="12" textLength="41.35" font-family="Arial">Usuário</text><text x="10" y="496.353" fill="#000" font-size="12" textLength="70.043" font-family="Arial">(autenticado)</text></g><!--entity C--><g class="entity" data-qualified-name="C" id="ent0002" data-source-line="5"><ellipse cx="248.924" cy="318.699" rx="8" ry="8" fill="#FFC" style="stroke:#000;stroke-width:0.5;"/><path d="M248.924,326.699 L248.924,353.699 M235.924,334.699 L261.924,334.699 M248.924,353.699 L235.924,368.699 M248.924,353.699 L261.924,368.699" style="stroke:#000;stroke-width:0.5;" fill="none"/><text x="221.57" y="381.454" fill="#000" font-size="12" textLength="54.709" font-family="Arial">Candidato</text></g><!--entity V--><g class="entity" data-qualified-name="V" id="ent0003" data-source-line="6"><ellipse cx="248.923" cy="723.699" rx="8" ry="8" fill="#FFC" style="stroke:#000;stroke-width:0.5;"/><path d="M248.923,731.699 L248.923,758.699 M235.923,739.699 L261.923,739.699 M248.923,758.699 L235.923,773.699 M248.923,758.699 L261.923,773.699" style="stroke:#000;stroke-width:0.5;" fill="none"/><text x="225.91" y="786.454" fill="#000" font-size="12" textLength="46.025" font-family="Arial">Visitante</text></g><!--entity E--><g class="entity" data-qualified-name="E" id="ent0004" data-source-line="7"><ellipse cx="745.779" cy="1028.699" rx="8" ry="8" fill="#FFC" style="stroke:#000;stroke-width:0.5;"/><path d="M745.779,1036.699 L745.779,1063.699 M732.779,1044.699 L758.779,1044.699 M745.779,1063.699 L732.779,1078.699 M745.779,1063.699 L758.779,1078.699" style="stroke:#000;stroke-width:0.5;" fill="none"/><text x="721.77" y="1091.454" fill="#000" font-size="12" textLength="48.018" font-family="Arial">Empresa</text></g><!--entity A--><g class="entity" data-qualified-name="A" id="ent0005" data-source-line="8"><ellipse cx="745.774" cy="1284.699" rx="8" ry="8" fill="#FFC" style="stroke:#000;stroke-width:0.5;"/><path d="M745.774,1292.699 L745.774,1319.699 M732.774,1300.699 L758.774,1300.699 M745.774,1319.699 L732.774,1334.699 M745.774,1319.699 L758.774,1334.699" style="stroke:#000;stroke-width:0.5;" fill="none"/><text x="708.76" y="1347.454" fill="#000" font-size="12" textLength="74.027" font-family="Arial">Administrador</text></g><g class="entity" data-qualified-name="N1" id="ent0006" data-source-line="9"><path d="M140.04,436.299 L140.04,451.099 L80.27,455.099 L140.04,459.099 L140.04,473.896 A0,0 0 0 0 140.04,473.896 L357.804,473.896 A0,0 0 0 0 357.804,473.896 L357.804,446.299 L347.804,436.299 L140.04,436.299 A0,0 0 0 0 140.04,436.299" style="stroke:#000;stroke-width:0.5;" fill="#FFC"/><path d="M347.804,436.299 L347.804,446.299 L357.804,446.299 L347.804,436.299" style="stroke:#000;stroke-width:0.5;" fill="#FFC"/><text x="146.04" y="452.554" fill="#000" font-size="12" textLength="196.764" font-family="Arial">Candidato, Empresa e Administrador</text><text x="146.04" y="466.353" fill="#000" font-size="12" textLength="168.762" font-family="Arial">são especializações de Usuário</text></g><!--reverse link U to C--><g class="link" data-entity-1="ent0001" data-entity-2="ent0002" id="lnk8" data-source-line="11" data-link-type="extension"><path d="M96.143,428.29 C135.973,406.99 185,380.759 221.26,361.359" style="stroke:#000;stroke-width:1;" fill="none" id="U-backto-C"/><polygon points="80.27,436.779,98.972,433.581,93.313,422.999,80.27,436.779" fill="none" style="stroke:#000;stroke-width:1;stroke-linejoin:miter;stroke-miterlimit:10;"/></g><!--link U to UC01--><g class="link" data-entity-1="ent0001" data-entity-2="ent0010" id="lnk31" data-source-line="35" data-link-type="association"><path d="M80.43,469.669 C98.04,476.779 119.96,485.059 140.04,491.099 C259.11,526.889 402.54,555.019 478.67,568.799" style="stroke:#000;stroke-width:1;" fill="none" id="U-UC01"/></g><!--link C to UC06--><g class="link" data-entity-1="ent0002" data-entity-2="ent0011" id="lnk32" data-source-line="36" data-link-type="association"><path d="M267.91,310.019 C291.02,266.259 335.26,194.349 393.81,154.099 C411.61,141.859 433.19,133.439 453.97,127.649" style="stroke:#000;stroke-width:1;" fill="none" id="C-UC06"/></g><!--link C to UC07--><g class="link" data-entity-1="ent0002" data-entity-2="ent0012" id="lnk33" data-source-line="37" data-link-type="association"><path d="M276.76,320.079 C304.03,294.059 348.58,255.329 393.81,232.099 C414.25,221.599 437.88,213.609 459.77,207.689" style="stroke:#000;stroke-width:1;" fill="none" id="C-UC07"/></g><!--link C to UC08--><g class="link" data-entity-1="ent0002" data-entity-2="ent0013" id="lnk34" data-source-line="38" data-link-type="association"><path d="M276.74,339.979 C320.38,328.389 407.94,305.129 468.31,289.089" style="stroke:#000;stroke-width:1;" fill="none" id="C-UC08"/></g><!--link C to UC09--><g class="link" data-entity-1="ent0002" data-entity-2="ent0014" id="lnk35" data-source-line="39" data-link-type="association"><path d="M276.74,347.099 C316.8,347.099 393.87,347.099 452.94,347.099" style="stroke:#000;stroke-width:1;" fill="none" id="C-UC09"/></g><!--link C to UC19--><g class="link" data-entity-1="ent0002" data-entity-2="ent0015" id="lnk36" data-source-line="40" data-link-type="association"><path d="M276.74,354.409 C319.35,366.029 403.82,389.069 463.98,405.469" style="stroke:#000;stroke-width:1;" fill="none" id="C-UC19"/></g><!--link C to UC14--><g class="link" data-entity-1="ent0002" data-entity-2="ent0016" id="lnk37" data-source-line="41" data-link-type="association"><path d="M276.45,361.569 C299.38,374.809 332.71,395.829 357.81,419.099 C376.84,436.749 372.29,450.569 393.81,465.099 C411.85,477.279 433.62,485.809 454.5,491.749" style="stroke:#000;stroke-width:1;" fill="none" id="C-UC14"/></g><!--link V to UC02--><g class="link" data-entity-1="ent0003" data-entity-2="ent0017" id="lnk38" data-source-line="42" data-link-type="association"><path d="M272.02,766.189 C299.57,783.229 348.57,811.759 393.81,829.099 C420.16,839.199 450.5,847.049 476.05,852.649" style="stroke:#000;stroke-width:1;" fill="none" id="V-UC02"/></g><!--link V to UC03--><g class="link" data-entity-1="ent0003" data-entity-2="ent0018" id="lnk39" data-source-line="43" data-link-type="association"><path d="M272.2,739.259 C299.93,723.709 349.11,697.569 393.81,681.099 C420.22,671.369 450.43,663.389 475.88,657.519" style="stroke:#000;stroke-width:1;" fill="none" id="V-UC03"/></g><!--link V to UC04--><g class="link" data-entity-1="ent0003" data-entity-2="ent0019" id="lnk40" data-source-line="44" data-link-type="association"><path d="M272.08,749.199 C314.07,743.689 406.64,731.559 469.26,723.359" style="stroke:#000;stroke-width:1;" fill="none" id="V-UC04"/></g><!--link V to UC05--><g class="link" data-entity-1="ent0003" data-entity-2="ent0020" id="lnk41" data-source-line="45" data-link-type="association"><path d="M272.08,754.999 C309.26,759.879 386.1,769.939 446.68,777.879" style="stroke:#000;stroke-width:1;" fill="none" id="V-UC05"/></g><!--link UC14 to E--><g class="link" data-entity-1="ent0016" data-entity-2="ent0004" id="lnk42" data-source-line="46" data-link-type="association"><path d="M622.4,514.499 C641.43,520.519 659.72,530.069 672.76,545.099 C734.46,616.209 743.4,914.499 744.61,1019.969" style="stroke:#000;stroke-width:1;" fill="none" id="UC14-E"/></g><!--link UC10 to E--><g class="link" data-entity-1="ent0021" data-entity-2="ent0004" id="lnk43" data-source-line="47" data-link-type="association"><path d="M609.1,948.809 C630.73,954.639 653.64,963.049 672.76,975.099 C691.84,987.119 708.74,1005.679 721.37,1022.109" style="stroke:#000;stroke-width:1;" fill="none" id="UC10-E"/></g><!--link UC13 to E--><g class="link" data-entity-1="ent0022" data-entity-2="ent0004" id="lnk44" data-source-line="48" data-link-type="association"><path d="M609.7,1155.079 C631,1148.939 653.58,1140.509 672.76,1129.099 C691.3,1118.069 708.52,1101.209 721.48,1086.569" style="stroke:#000;stroke-width:1;" fill="none" id="UC13-E"/></g><!--link UC11 to E--><g class="link" data-entity-1="ent0023" data-entity-2="ent0004" id="lnk45" data-source-line="49" data-link-type="association"><path d="M596.4,1240.039 C622.35,1235.979 651.38,1227.479 672.76,1210.099 C708.76,1180.849 727.75,1129.419 737.02,1094.339" style="stroke:#000;stroke-width:1;" fill="none" id="UC11-E"/></g><!--link UC12 to E--><g class="link" data-entity-1="ent0024" data-entity-2="ent0004" id="lnk46" data-source-line="50" data-link-type="association"><path d="M622.94,1034.529 C658.89,1041.189 697.5,1048.339 721.39,1052.769" style="stroke:#000;stroke-width:1;" fill="none" id="UC12-E"/></g><!--link UC18 to E--><g class="link" data-entity-1="ent0025" data-entity-2="ent0004" id="lnk47" data-source-line="51" data-link-type="association"><path d="M591.8,1084.719 C634.4,1077.029 690.25,1066.939 721.32,1061.329" style="stroke:#000;stroke-width:1;" fill="none" id="UC18-E"/></g><!--link UC11 to A--><g class="link" data-entity-1="ent0023" data-entity-2="ent0005" id="lnk48" data-source-line="52" data-link-type="association"><path d="M585.47,1252.229 C611.98,1257.719 644.6,1265.679 672.76,1276.099 C684.76,1280.539 697.33,1286.499 708.54,1292.329" style="stroke:#000;stroke-width:1;" fill="none" id="UC11-A"/></g><!--link UC12 to A--><g class="link" data-entity-1="ent0024" data-entity-2="ent0005" id="lnk49" data-source-line="53" data-link-type="association"><path d="M627.5,1033.119 C644.28,1039.449 660.36,1048.409 672.76,1061.099 C730.33,1119.989 742.49,1221.579 744.68,1276.049" style="stroke:#000;stroke-width:1;" fill="none" id="UC12-A"/></g><!--link UC13 to A--><g class="link" data-entity-1="ent0022" data-entity-2="ent0005" id="lnk50" data-source-line="54" data-link-type="association"><path d="M615.39,1183.659 C635.37,1189.559 655.87,1198.019 672.76,1210.099 C696.19,1226.859 714.6,1253.719 726.94,1275.809" style="stroke:#000;stroke-width:1;" fill="none" id="UC13-A"/></g><!--link UC18 to A--><g class="link" data-entity-1="ent0025" data-entity-2="ent0005" id="lnk51" data-source-line="55" data-link-type="association"><path d="M603.72,1099.719 C627.93,1104.439 653.77,1113.389 672.76,1130.099 C715.56,1167.769 733.17,1234.169 740.23,1275.779" style="stroke:#000;stroke-width:1;" fill="none" id="UC18-A"/></g><!--link UC15 to A--><g class="link" data-entity-1="ent0026" data-entity-2="ent0005" id="lnk52" data-source-line="56" data-link-type="association"><path d="M600.04,1458.079 C624.67,1453.599 651.74,1445.309 672.76,1430.099 C700.2,1410.239 719.35,1376.419 730.97,1350.229" style="stroke:#000;stroke-width:1;" fill="none" id="UC15-A"/></g><!--link UC16 to A--><g class="link" data-entity-1="ent0027" data-entity-2="ent0005" id="lnk53" data-source-line="57" data-link-type="association"><path d="M604.8,1527.289 C628.71,1522.519 654.07,1513.579 672.76,1497.099 C715.86,1459.099 733.39,1392.049 740.36,1350.239" style="stroke:#000;stroke-width:1;" fill="none" id="UC16-A"/></g><!--link UC17 to A--><g class="link" data-entity-1="ent0028" data-entity-2="ent0005" id="lnk54" data-source-line="58" data-link-type="association"><path d="M612.57,1597.209 C634.43,1592.029 656.6,1582.909 672.76,1567.099 C732.23,1508.919 743.57,1405.559 745.14,1350.329" style="stroke:#000;stroke-width:1;" fill="none" id="UC17-A"/></g><!--link UC20 to A--><g class="link" data-entity-1="ent0029" data-entity-2="ent0005" id="lnk55" data-source-line="59" data-link-type="association"><path d="M619.9,1313.099 C650.74,1313.099 683.92,1313.099 708.32,1313.099" style="stroke:#000;stroke-width:1;" fill="none" id="UC20-A"/></g><!--link UC21 to A--><g class="link" data-entity-1="ent0030" data-entity-2="ent0005" id="lnk56" data-source-line="60" data-link-type="association"><path d="M601.02,1373.639 C624.07,1367.209 649.85,1359.189 672.76,1350.099 C684.65,1345.379 697.19,1339.339 708.41,1333.519" style="stroke:#000;stroke-width:1;" fill="none" id="UC21-A"/></g><!--link UC06 to UC01--><!--link UC07 to UC06--><!--link UC08 to UC07--><!--link UC09 to UC08--><!--link UC19 to UC09--><!--link UC14 to UC19--><!--link UC05 to UC14--><!--link UC02 to UC05--><!--link UC03 to UC02--><!--link UC04 to UC03--><!--link UC10 to UC04--><!--link UC13 to UC10--><!--link UC11 to UC13--><!--link UC12 to UC11--><!--link UC18 to UC12--><!--link UC15 to UC18--><!--link UC16 to UC15--><!--link UC17 to UC16--><!--link UC20 to UC17--><!--link UC21 to UC20--><?plantuml-src RLNBZjCm5DtdAqnNHQ93dRubDbMdp0OG0hKRXeN7SLkBn0vsCXhn-9ZHB5Yn6l45-J6kNTjjdQnowtEkx-DStxxWWkPrnX3J5S_b5Q-BF2a85pj52ePgYbP4ImI43Nnkc29vahDTXIg95DyVAfHnnMZ5fKW8hQH2lOskcqV5vQteaxfYekAKPF9b3n6DDewq8YBZ6O5Bu73b3hTSyug8Yfd3hJjS5wLYcfYZjJjQPWKNN5SAhbK6M2P2WbSltFegkB5BzgtGpPE4Oaj6ESdv3zByQVunVIpmcBTDz0DEDkZgwlXzysimW2nDdKJiSuZq6Iva1K4hASmXsf8zE5s_xQ6V2KArPfHee6rMGum-CHj8eLpkkJYs0SuZtXIzDwKhL3ArupdA9AA-7EypZNncQ2tkETnCQwMQlxJE9Ugp1oWLgdhoBGTUv3SthQvTLgLKrQvvpZcq1HMaeWVlDe_S5Zv5drYjYESkBhbuWTOFC5WSz46bQfvBnGcYKa2l-kzkFbxxt73iEFP1YDPSs1YeN-P4I1rynb5YASnJHep4wXZ3PvL6n168GMleC10r4uT074N4iL5Mrta5n7kZhIV6eITdH511ImrTP8CxARy5dqbKuZ2M6iRqEAw-m67aCJgBSaS4jG-o8ZayBkd3uAW6Z7qOKu0dHME7K_EccQ1sYawoQWJ3pkxWLxW-wYM-72BO62ptr6XmyCHdKfy_CGD4nEbfmYgsbp0pdXcDFfu5fcdwwsF7FJcQztHuLkHfh7nbQTJj5ACbbKL9O3xC-1RDu_SQV6u5D9s0Jj2b7x1Cl3jEViEEW0rXN_NAMTDWpO8r3zR2M_XaZPEjGzDWZO9rGYU9VIRmOvtOQVBMA5WuM6cmvfVeCg3BuBiCF6jDWZKDrinRwJ1OuJvOOWFxf_3bmBECYQ-k9tPLTI3Jn2wZ3cIMs7tJWSmJkrqwa8NhIml11e6Nse6C4xi-EcupNOPzqO6aYLqG7SZ8wT56ngx7xGo6Jf4sCd8AjH7iT6eZgTEjZSoTZcraudHj8rEdSnkPETrRI3hy3m00?></g></svg>