<svg xmlns="http://www.w3.org/2000/svg" xmlns:xlink="http://www.w3.org/1999/xlink" version="1.1" data-diagram-type="DESCRIPTION" style="width:596px;height:510px;background:#FFFFFF;" width="596px" height="510px" viewBox="0 0 596 510" zoomAndPan="magnify" preserveAspectRatio="none" contentStyleType="text/css"><?plantuml 1.2026.8?><defs/><g font-family="sans-serif" lengthAdjust="spacing"><rect x="5" y="10" width="580.23" height="484.197" fill="#FFF" style="stroke:#181818;stroke-width:1.5;"/><path d="M118.496,10 L118.496,19.099 L108.496,29.099 L5,29.099" style="stroke:#181818;stroke-width:1.5;" fill="none"/><text x="8" y="24.132" fill="#000" font-size="14" textLength="103.496" font-family="Arial">uc Realizar login</text><!--cluster Conecta Vagas DF--><g class="cluster" data-qualified-name="Conecta Vagas DF" id="ent0008" data-source-line="11"><rect x="158.41" y="329.099" width="410.82" height="149" fill="#FFF" style="stroke:#000;stroke-width:1;"/><text x="311.138" y="342.354" fill="#000" font-size="12" textLength="105.363" font-weight="700" font-family="Arial">Conecta Vagas DF</text></g><!--entity L--><g class="entity" data-qualified-name="Conecta Vagas DF.L" id="ent0009" data-source-line="12"><ellipse cx="232.675" cy="374.102" rx="53.115" ry="13.023" fill="#FFC" style="stroke:#000;stroke-width:0.5;"/><text x="196.323" y="377.501" fill="#000" font-size="12" textLength="72.703" font-family="Arial">Realizar login</text></g><!--entity B--><g class="entity" data-qualified-name="Conecta Vagas DF.B" id="ent0010" data-source-line="13"><ellipse cx="475.573" cy="383.102" rx="77.653" ry="22.423" fill="#FFC" style="stroke:#000;stroke-width:0.5;"/><text x="422.537" y="379.731" fill="#000" font-size="12" textLength="106.072" font-family="Arial">Pausar o login após</text><text x="423.542" y="393.53" fill="#000" font-size="12" textLength="104.063" font-family="Arial">tentativas repetidas</text></g><!--entity S--><g class="entity" data-qualified-name="Conecta Vagas DF.S" id="ent0011" data-source-line="14"><ellipse cx="232.673" cy="442.102" rx="58.253" ry="20.453" fill="#FFC" style="stroke:#000;stroke-width:0.5;"/><text x="188.989" y="441.714" fill="#000" font-size="12" textLength="87.369" font-family="Arial">Encerrar sessão</text><text x="219.009" y="455.513" fill="#000" font-size="12" textLength="27.328" font-family="Arial">(sair)</text></g><!--entity Candidato--><g class="entity" data-qualified-name="Candidato" id="ent0001" data-source-line="4"><ellipse cx="74.404" cy="53.699" rx="8" ry="8" fill="#FFC" style="stroke:#000;stroke-width:0.5;"/><path d="M74.404,61.699 L74.404,88.699 M61.404,69.699 L87.404,69.699 M74.404,88.699 L61.404,103.699 M74.404,88.699 L87.404,103.699" style="stroke:#000;stroke-width:0.5;" fill="none"/><text x="47.05" y="116.454" fill="#000" font-size="12" textLength="54.709" font-family="Arial">Candidato</text></g><!--entity Empresa--><g class="entity" data-qualified-name="Empresa" id="ent0002" data-source-line="5"><ellipse cx="74.399" cy="162.699" rx="8" ry="8" fill="#FFC" style="stroke:#000;stroke-width:0.5;"/><path d="M74.399,170.699 L74.399,197.699 M61.399,178.699 L87.399,178.699 M74.399,197.699 L61.399,212.699 M74.399,197.699 L87.399,212.699" style="stroke:#000;stroke-width:0.5;" fill="none"/><text x="50.39" y="225.454" fill="#000" font-size="12" textLength="48.018" font-family="Arial">Empresa</text></g><!--entity Administrador--><g class="entity" data-qualified-name="Administrador" id="ent0003" data-source-line="6"><ellipse cx="74.404" cy="271.699" rx="8" ry="8" fill="#FFC" style="stroke:#000;stroke-width:0.5;"/><path d="M74.404,279.699 L74.404,306.699 M61.404,287.699 L87.404,287.699 M74.404,306.699 L61.404,321.699 M74.404,306.699 L87.404,321.699" style="stroke:#000;stroke-width:0.5;" fill="none"/><text x="37.39" y="334.454" fill="#000" font-size="12" textLength="74.027" font-family="Arial">Administrador</text></g><!--entity U--><g class="entity" data-qualified-name="U" id="ent0004" data-source-line="7"><ellipse cx="74.405" cy="380.699" rx="8" ry="8" fill="#FFC" style="stroke:#000;stroke-width:0.5;"/><path d="M74.405,388.699 L74.405,415.699 M61.405,396.699 L87.405,396.699 M74.405,415.699 L61.405,430.699 M74.405,415.699 L87.405,430.699" style="stroke:#000;stroke-width:0.5;" fill="none"/><text x="53.73" y="443.454" fill="#000" font-size="12" textLength="41.35" font-family="Arial">Usuário</text></g><!--link Candidato to U--><g class="link" data-entity-1="ent0001" data-entity-2="ent0004" id="lnk5" data-source-line="8" data-link-type="extension"><path d="M46.66,111.849 C37.01,124.139 27.37,139.119 22.39,154.599 C10,193.099 10,298.099 22.39,336.599 C28.55,355.769 30.113,360.539 41.723,373.999" style="stroke:#000;stroke-width:1;" fill="none" id="Candidato-to-U"/><polygon points="53.48,387.629,46.267,370.08,37.18,377.917,53.48,387.629" fill="none" style="stroke:#000;stroke-width:1;stroke-linejoin:miter;stroke-miterlimit:10;"/></g><!--link Empresa to U--><g class="link" data-entity-1="ent0002" data-entity-2="ent0004" id="lnk6" data-source-line="9" data-link-type="extension"><path d="M49.96,216.749 C39.28,229.719 27.94,246.349 22.39,263.599 C12.45,294.489 12.45,305.709 22.39,336.599 C28.55,355.769 30.113,360.539 41.723,373.999" style="stroke:#000;stroke-width:1;" fill="none" id="Empresa-to-U"/><polygon points="53.48,387.629,46.267,370.08,37.18,377.917,53.48,387.629" fill="none" style="stroke:#000;stroke-width:1;stroke-linejoin:miter;stroke-miterlimit:10;"/></g><!--link Administrador to U--><g class="link" data-entity-1="ent0003" data-entity-2="ent0004" id="lnk7" data-source-line="10" data-link-type="extension"><path d="M74.4,337.479 C74.4,349.009 74.4,342.529 74.4,354.059" style="stroke:#000;stroke-width:1;" fill="none" id="Administrador-to-U"/><polygon points="74.4,372.059,80.4,354.059,68.4,354.059,74.4,372.059" fill="none" style="stroke:#000;stroke-width:1;stroke-linejoin:miter;stroke-miterlimit:10;"/></g><!--link U to L--><g class="link" data-entity-1="ent0004" data-entity-2="ent0009" id="lnk12" data-source-line="16" data-link-type="association"><path d="M95.51,404.599 C119.91,399.129 161.61,389.789 192.44,382.889" style="stroke:#000;stroke-width:1;" fill="none" id="U-L"/></g><!--link U to S--><g class="link" data-entity-1="ent0004" data-entity-2="ent0011" id="lnk13" data-source-line="17" data-link-type="association"><path d="M95.51,413.349 C117.27,417.939 152.79,425.439 182.1,431.629" style="stroke:#000;stroke-width:1;" fill="none" id="U-S"/></g><!--reverse link L to B--><g class="link" data-entity-1="ent0009" data-entity-2="ent0010" id="lnk14" data-source-line="18" data-link-type="dependency"><path d="M290.637,376.225 C323.557,377.455 361.7,378.879 398.45,380.259" style="stroke:#000;stroke-width:1;stroke-dasharray:7,7;" fill="none" id="L-backto-B"/><polygon points="285.64,376.039,294.484,380.372,290.637,376.225,294.783,372.377,285.64,376.039" fill="#000" style="stroke:#000;stroke-width:1;stroke-linejoin:miter;stroke-miterlimit:10;"/><text x="321.92" y="374.847" fill="#000" font-size="11" textLength="45.262" font-family="Arial">«extend»</text></g><?plantuml-src LOzDJiCm48NtFiMG5IoI0w0e4YtjgWj45LRTZE9f6CcnenaR8NuEWpW2HyZ5S4E4sfNrpPlttlYAVUUI9I2Dx4B5QN1cGFP7mO4WTV18wFWD1LpesHj7nmWnW73_7C6oK1SvU8DT309hz9Ojnh3mPXY551UwimDxrYXeWoopejKqVGc70b2XDVy9K7uqcPU4XIuIbjdf0lIz8oZMmPy0dh3FOVVR0juDG5BgKBDy-PMvS7UkFs3Ih8O_7N2SVlJW8_c8aL_ojj18CL-ditTrxjtuZaIoMqbr-Wu7Vwt8SZDlxisdQQ4iSztyxCqEwgg25Tn2NTDhhh1Dymi0?></g></svg>