<svg xmlns="http://www.w3.org/2000/svg" xmlns:xlink="http://www.w3.org/1999/xlink" version="1.1" data-diagram-type="DESCRIPTION" style="width:619px;height:449px;background:#FFFFFF;" width="619px" height="449px" viewBox="0 0 619 449" zoomAndPan="magnify" preserveAspectRatio="none" contentStyleType="text/css"><?plantuml 1.2026.8?><defs/><g font-family="sans-serif" lengthAdjust="spacing"><rect x="5" y="10" width="603.98" height="423.197" fill="#FFF" style="stroke:#181818;stroke-width:1.5;"/><path d="M162.068,10 L162.068,19.099 L152.068,29.099 L5,29.099" style="stroke:#181818;stroke-width:1.5;" fill="none"/><text x="8" y="24.132" fill="#000" font-size="14" textLength="147.068" font-family="Arial">uc Manter curso/e-book</text><!--cluster Conecta Vagas DF--><g class="cluster" data-qualified-name="Conecta Vagas DF" id="ent0002" data-source-line="5"><rect x="131.03" y="61.099" width="461.95" height="356" fill="#FFF" style="stroke:#000;stroke-width:1;"/><text x="309.323" y="74.354" fill="#000" font-size="12" textLength="105.363" font-weight="700" font-family="Arial">Conecta Vagas DF</text></g><!--entity C--><g class="entity" data-qualified-name="Conecta Vagas DF.C" id="ent0003" data-source-line="6"><ellipse cx="222.189" cy="110.101" rx="74.559" ry="17.312" fill="#FFC" style="stroke:#000;stroke-width:0.5;"/><text x="159.494" y="113.5" fill="#000" font-size="12" textLength="125.391" font-family="Arial">Cadastrar curso/e-book</text></g><!--entity X--><g class="entity" data-qualified-name="Conecta Vagas DF.X" id="ent0004" data-source-line="7"><ellipse cx="491.665" cy="344.097" rx="80.405" ry="21.728" fill="#FFC" style="stroke:#000;stroke-width:0.5;"/><text x="434.633" y="341.733" fill="#000" font-size="12" textLength="114.064" font-family="Arial">Extrair do texto ou da</text><text x="444.966" y="355.532" fill="#000" font-size="12" textLength="93.398" font-family="Arial">ficha da pesquisa</text></g><!--entity L--><g class="entity" data-qualified-name="Conecta Vagas DF.L" id="ent0005" data-source-line="8"><ellipse cx="491.657" cy="267.1" rx="80.307" ry="20.481" fill="#FFC" style="stroke:#000;stroke-width:0.5;"/><text x="430.634" y="266.666" fill="#000" font-size="12" textLength="122.045" font-family="Arial">Importar fichas em lote</text><text x="471.319" y="280.465" fill="#000" font-size="12" textLength="40.676" font-family="Arial">(prévia)</text></g><!--entity G--><g class="entity" data-qualified-name="Conecta Vagas DF.G" id="ent0006" data-source-line="9"><ellipse cx="491.659" cy="191.096" rx="66.299" ry="20.817" fill="#FFC" style="stroke:#000;stroke-width:0.5;"/><text x="442.636" y="190.123" fill="#000" font-size="12" textLength="98.045" font-family="Arial">Guardar o PDF na</text><text x="466.308" y="203.922" fill="#000" font-size="12" textLength="50.701" font-family="Arial">biblioteca</text></g><!--entity U--><g class="entity" data-qualified-name="Conecta Vagas DF.U" id="ent0007" data-source-line="10"><ellipse cx="222.188" cy="178.098" rx="67.098" ry="15.82" fill="#FFC" style="stroke:#000;stroke-width:0.5;"/><text x="168.165" y="181.498" fill="#000" font-size="12" textLength="108.047" font-family="Arial">Alterar curso/e-book</text></g><!--entity P--><g class="entity" data-qualified-name="Conecta Vagas DF.P" id="ent0008" data-source-line="11"><ellipse cx="222.193" cy="243.099" rx="59.453" ry="14.291" fill="#FFC" style="stroke:#000;stroke-width:0.5;"/><text x="177.506" y="246.499" fill="#000" font-size="12" textLength="89.373" font-family="Arial">Publicar / ocultar</text></g><!--entity E--><g class="entity" data-qualified-name="Conecta Vagas DF.E" id="ent0009" data-source-line="12"><ellipse cx="222.187" cy="308.094" rx="67.377" ry="15.875" fill="#FFC" style="stroke:#000;stroke-width:0.5;"/><text x="167.833" y="311.494" fill="#000" font-size="12" textLength="108.709" font-family="Arial">Excluir curso/e-book</text></g><!--entity T--><g class="entity" data-qualified-name="Conecta Vagas DF.T" id="ent0010" data-source-line="13"><ellipse cx="222.19" cy="380.101" rx="75.16" ry="20.882" fill="#FFC" style="stroke:#000;stroke-width:0.5;"/><text x="166.508" y="379.026" fill="#000" font-size="12" textLength="111.363" font-family="Arial">Trazer os PDFs para</text><text x="191.836" y="392.824" fill="#000" font-size="12" textLength="60.709" font-family="Arial">a biblioteca</text></g><!--entity AA--><g class="entity" data-qualified-name="Conecta Vagas DF.AA" id="ent0011" data-source-line="14"><ellipse cx="491.664" cy="114.1" rx="85.314" ry="20.832" fill="#FFC" style="stroke:#000;stroke-width:0.5;"/><text x="427.967" y="113.105" fill="#000" font-size="12" textLength="127.395" font-family="Arial">Aprender com a revisão</text><text x="458.318" y="126.904" fill="#000" font-size="12" textLength="66.691" font-family="Arial">(automático)</text></g><!--entity A--><g class="entity" data-qualified-name="A" id="ent0001" data-source-line="4"><ellipse cx="47.014" cy="214.699" rx="8" ry="8" fill="#FFC" style="stroke:#000;stroke-width:0.5;"/><path d="M47.014,222.699 L47.014,249.699 M34.014,230.699 L60.014,230.699 M47.014,249.699 L34.014,264.699 M47.014,249.699 L60.014,264.699" style="stroke:#000;stroke-width:0.5;" fill="none"/><text x="10" y="277.454" fill="#000" font-size="12" textLength="74.027" font-family="Arial">Administrador</text></g><!--link A to C--><g class="link" data-entity-1="ent0001" data-entity-2="ent0003" id="lnk12" data-source-line="16" data-link-type="association"><path d="M69.21,205.739 C82.41,185.379 101.04,161.129 123.03,145.099 C136.62,135.189 153.3,127.859 169.01,122.539" style="stroke:#000;stroke-width:1;" fill="none" id="A-C"/></g><!--link A to U--><g class="link" data-entity-1="ent0001" data-entity-2="ent0007" id="lnk13" data-source-line="17" data-link-type="association"><path d="M84.41,226.889 C96.6,221.649 110.32,215.939 123.03,211.099 C141.85,203.939 162.99,196.719 180.82,190.879" style="stroke:#000;stroke-width:1;" fill="none" id="A-U"/></g><!--link A to P--><g class="link" data-entity-1="ent0001" data-entity-2="ent0008" id="lnk14" data-source-line="18" data-link-type="association"><path d="M84.32,243.099 C106.93,243.099 136.54,243.099 162.44,243.099" style="stroke:#000;stroke-width:1;" fill="none" id="A-P"/></g><!--link A to E--><g class="link" data-entity-1="ent0001" data-entity-2="ent0009" id="lnk15" data-source-line="19" data-link-type="association"><path d="M84.41,259.309 C96.6,264.549 110.32,270.259 123.03,275.099 C141.85,282.259 162.99,289.479 180.82,295.319" style="stroke:#000;stroke-width:1;" fill="none" id="A-E"/></g><!--link A to T--><g class="link" data-entity-1="ent0001" data-entity-2="ent0010" id="lnk16" data-source-line="20" data-link-type="association"><path d="M69.43,280.169 C82.7,300.429 101.33,324.679 123.03,341.099 C136.48,351.279 152.94,359.179 168.51,365.119" style="stroke:#000;stroke-width:1;" fill="none" id="A-T"/></g><!--reverse link C to X--><g class="link" data-entity-1="ent0003" data-entity-2="ent0004" id="lnk17" data-source-line="21" data-link-type="dependency"><path d="M272.373,126.321 C283.193,131.481 289.4,136.169 297.35,145.099 C325.11,176.279 304.41,199.229 327.35,234.099 C353.29,273.539 366.93,279.119 406.35,305.099 C418.33,312.999 432.18,320.119 445.13,326.049" style="stroke:#000;stroke-width:1;stroke-dasharray:7,7;" fill="none" id="C-backto-X"/><polygon points="267.86,124.169,274.262,131.653,272.373,126.321,277.705,124.432,267.86,124.169" fill="#000" style="stroke:#000;stroke-width:1;stroke-linejoin:miter;stroke-miterlimit:10;"/><text x="329.35" y="231.417" fill="#000" font-size="11" textLength="45.262" font-family="Arial">«extend»</text></g><!--reverse link C to L--><g class="link" data-entity-1="ent0003" data-entity-2="ent0005" id="lnk18" data-source-line="22" data-link-type="dependency"><path d="M266.624,127.205 C278.474,132.645 286.64,137.309 297.35,145.099 C313.11,156.569 312.44,164.539 327.35,177.099 C359.5,204.179 369.51,208.839 406.35,229.099 C419.71,236.449 434.77,243.579 448.42,249.639" style="stroke:#000;stroke-width:1;stroke-dasharray:7,7;" fill="none" id="C-backto-L"/><polygon points="262.08,125.119,268.59,132.509,266.624,127.205,271.928,125.238,262.08,125.119" fill="#000" style="stroke:#000;stroke-width:1;stroke-linejoin:miter;stroke-miterlimit:10;"/><text x="329.35" y="174.417" fill="#000" font-size="11" textLength="45.262" font-family="Arial">«extend»</text></g><!--reverse link C to G--><g class="link" data-entity-1="ent0003" data-entity-2="ent0006" id="lnk19" data-source-line="23" data-link-type="dependency"><path d="M273.645,125.378 C322.145,140.068 393.65,161.719 442.92,176.639" style="stroke:#000;stroke-width:1;stroke-dasharray:7,7;" fill="none" id="C-backto-G"/><polygon points="268.86,123.929,276.314,130.366,273.645,125.378,278.633,122.709,268.86,123.929" fill="#000" style="stroke:#000;stroke-width:1;stroke-linejoin:miter;stroke-miterlimit:10;"/><text x="329.35" y="140.657" fill="#000" font-size="11" textLength="45.262" font-family="Arial">«extend»</text></g><!--link C to AA--><g class="link" data-entity-1="ent0003" data-entity-2="ent0011" id="lnk20" data-source-line="24" data-link-type="dependency"><path d="M296.98,111.199 C330.85,111.709 366.181,112.233 401.241,112.763" style="stroke:#000;stroke-width:1;stroke-dasharray:7,7;" fill="none" id="C-to-AA"/><polygon points="406.24,112.839,397.301,108.703,401.241,112.763,397.181,116.702,406.24,112.839" fill="#000" style="stroke:#000;stroke-width:1;stroke-linejoin:miter;stroke-miterlimit:10;"/><text x="328.35" y="109.057" fill="#000" font-size="11" textLength="47.094" font-family="Arial">«include»</text></g><?plantuml-src RLBBJiCm4BpdAvQUuD3qZgf8KMahf2BrK107BblRBIjiR_2ZGY0-1d7YE_fZR18EAUffu_NCpdWd5-ILpTg0YOaibvITBHoItmLq1hA2E_J9150vH9wOyPRvfR1cbo0n1De_9z0KZ4h4la2LE42j7NcAAQ2M4qQeYnQ0VcyDZ6RismCyu5wkRXOZ-2W0SZGAOtkD6blggUAe7JCRukPl0g80cY6PD_726JG--HsfPvGlQ4nypHInepuEgRUkuP14eSD6C0ui9_FaBvjm_3aGNdMSrP2pp1YqK1ZMDmlm8hIbhIMXgLvXEKJNLbPsxWdtGzGwomGbi0cmobOSTPZrwJCb7ZepQJv4RGA-IqOSMtSH6WnY4E6VnSs9nIOOhzjWsG52C0UAns-M9M1Ex8vVYHJtYwZhuhEeOJoM1BfotvTrN-PzsHGpc9ObFC8rJASIYOolgh_cwbnp-RzPbfM8TTs_txAgVW40?></g></svg>